<?xml version="1.0" standalone="no"?>
<!DOCTYPE svg PUBLIC "-//W3C//DTD SVG 20010904//EN"
 "http://www.w3.org/TR/2001/REC-SVG-20010904/DTD/svg10.dtd">
<svg version="1.0" xmlns="http://www.w3.org/2000/svg"
 width="600.000000pt" height="849.000000pt" viewBox="0 0 600.000000 849.000000"
 preserveAspectRatio="xMidYMid meet">
<g transform="translate(0.000000,849.000000) scale(0.100000,-0.100000)"
fill="#F4C542" stroke="none">
<path d="M2960 5920 c-119 -3 -221 -9 -227 -13 -6 -4 -39 -13 -74 -21 -35 -8
-107 -26 -159 -41 -52 -14 -105 -27 -117 -28 -11 -1 -19 -5 -17 -9 4 -6 -18
-16 -41 -19 -5 -1 -21 -9 -35 -19 -14 -10 -43 -22 -64 -25 -26 -5 -34 -10 -24
-16 9 -6 5 -9 -14 -9 -16 0 -28 -4 -28 -10 0 -5 -11 -12 -25 -16 -14 -3 -22
-11 -18 -17 3 -5 1 -7 -5 -3 -6 3 -23 -5 -38 -19 -15 -14 -33 -25 -40 -25 -8
0 -14 -6 -14 -12 0 -10 -3 -9 -9 1 -7 11 -10 9 -16 -8 -4 -12 -18 -26 -31 -31
-13 -5 -24 -13 -24 -18 0 -5 -15 -17 -34 -27 -19 -11 -32 -23 -29 -29 4 -5 -3
-7 -16 -3 -18 4 -20 3 -10 -9 9 -11 8 -14 -2 -14 -8 0 -28 -13 -45 -30 -18
-16 -35 -26 -39 -22 -5 4 -5 -1 -2 -10 4 -11 2 -17 -5 -15 -6 1 -16 -7 -22
-19 -6 -11 -17 -19 -25 -16 -8 3 -11 0 -7 -6 4 -6 -11 -30 -34 -54 -22 -24
-40 -47 -40 -51 0 -5 -5 -5 -10 -2 -6 4 -10 3 -9 -2 4 -12 -23 -63 -33 -63 -4
0 -8 -4 -8 -10 0 -10 -60 -101 -73 -111 -5 -3 -10 -15 -11 -25 -2 -10 -9 -18
-15 -16 -6 1 -11 -4 -11 -12 0 -8 -14 -42 -31 -77 -17 -34 -32 -69 -34 -78 -1
-8 -7 -17 -13 -19 -7 -2 -9 -8 -6 -13 3 -6 -3 -29 -15 -53 -11 -24 -23 -57
-27 -72 -4 -16 -11 -32 -16 -35 -5 -3 -11 -23 -12 -45 -2 -21 -5 -41 -6 -44
-1 -3 -2 -9 -1 -13 1 -4 -3 -17 -9 -27 -40 -74 -46 -582 -9 -653 6 -9 7 -21 5
-26 -3 -5 1 -22 9 -37 9 -17 11 -30 5 -32 -15 -5 -12 -21 10 -44 l20 -22 0 22
c0 12 -4 22 -10 22 -5 0 -7 6 -4 14 3 8 -2 52 -11 98 -23 113 -25 132 -26 293
-1 189 16 311 70 485 39 127 47 148 108 270 189 382 528 694 918 845 104 40
113 43 195 64 249 64 507 74 735 27 161 -33 297 -78 438 -145 95 -45 141 -73
312 -192 59 -42 203 -184 267 -264 129 -164 202 -288 277 -473 l29 -73 -26
-25 c-15 -14 -42 -34 -59 -45 -36 -22 -46 -47 -13 -29 11 6 20 15 20 20 0 6 7
10 15 10 8 0 15 5 15 10 0 6 6 10 14 10 8 0 21 9 29 20 8 11 16 17 20 14 3 -3
1 12 -4 33 -6 21 -11 43 -12 48 -1 6 -6 16 -10 23 -5 6 -5 12 -1 12 4 0 0 8
-8 18 -9 9 -19 32 -23 51 -4 19 -14 41 -22 49 -8 8 -11 23 -8 36 5 16 4 17 -3
7 -8 -11 -13 -5 -22 28 -6 23 -15 39 -19 36 -9 -5 -55 92 -54 113 1 9 -3 10
-12 2 -9 -8 -14 -7 -18 4 -3 8 -3 17 1 19 4 2 1 2 -6 1 -7 -2 -16 4 -19 14 -4
9 -14 24 -23 32 -9 8 -15 21 -13 28 3 6 -2 12 -11 12 -9 0 -16 4 -16 8 0 5
-11 22 -25 38 -14 16 -25 35 -25 42 0 7 -4 11 -9 8 -5 -3 -19 10 -32 29 -13
19 -30 35 -37 35 -7 0 -10 5 -6 12 4 6 3 8 -3 5 -13 -8 -46 27 -36 37 4 4 -1
4 -11 0 -14 -5 -17 -4 -12 4 4 7 1 12 -8 12 -9 0 -16 4 -16 8 0 4 -13 16 -30
25 -16 10 -35 23 -42 30 -7 7 -35 28 -63 47 -27 19 -54 41 -58 48 -4 6 -15 12
-23 12 -8 0 -12 5 -9 11 4 6 1 9 -7 7 -20 -4 -129 55 -124 68 3 7 -3 10 -13 7
-15 -4 -60 11 -166 56 -55 24 -119 43 -191 57 -101 20 -108 21 -171 30 -29 4
-50 11 -47 15 3 5 4 8 2 7 -2 -1 -100 -4 -218 -8z"/>
<path d="M2345 5730 c-3 -5 -2 -10 4 -10 5 0 13 5 16 10 3 6 2 10 -4 10 -5 0
-13 -4 -16 -10z"/>
<path d="M2840 5729 c-191 -22 -361 -69 -510 -142 -251 -122 -483 -323 -626
-542 -21 -33 -42 -62 -45 -65 -33 -26 -157 -339 -187 -470 -23 -101 -34 -244
-29 -367 7 -134 7 -141 31 -263 42 -222 198 -534 349 -696 54 -58 69 -84 48
-84 -21 0 -152 162 -220 273 -52 86 -144 278 -161 337 -7 25 -16 56 -21 70
-19 57 -39 166 -50 275 -21 201 18 479 92 667 10 27 14 48 9 48 -6 0 -10 -8
-10 -17 0 -9 -6 -24 -14 -32 -15 -18 -49 -133 -75 -256 -10 -44 -19 -74 -22
-68 -2 7 -4 -74 -4 -180 0 -105 4 -198 9 -206 6 -9 5 -12 -1 -8 -6 4 -13 -4
-15 -18 -4 -20 -3 -23 8 -14 11 9 14 6 14 -14 0 -37 39 -198 51 -213 6 -7 8
-18 5 -23 -4 -5 -2 -12 4 -16 6 -4 8 -11 4 -16 -3 -5 1 -21 10 -34 18 -27 21
-49 7 -40 -5 3 -12 1 -16 -5 -3 -5 3 -10 13 -10 15 0 30 -19 56 -74 20 -40 36
-79 36 -85 0 -6 3 -11 8 -11 4 0 21 -23 37 -51 17 -28 35 -58 40 -68 20 -32
93 -127 124 -160 17 -18 31 -37 31 -41 0 -18 51 -19 85 -3 32 15 38 15 47 3 8
-12 9 -12 4 3 -4 14 1 17 24 17 17 0 30 5 30 11 0 7 -11 8 -29 4 -33 -7 -51 9
-23 21 9 4 21 6 26 5 5 -1 6 5 3 14 -4 9 -1 15 9 15 8 0 13 4 9 9 -7 13 26 82
37 75 4 -3 5 2 2 11 -4 8 -1 22 6 30 7 8 10 22 6 30 -3 8 -2 15 2 15 9 0 7
466 -3 516 -5 30 -3 41 11 51 14 10 15 15 4 28 -9 11 -13 55 -14 150 -1 114 1
135 14 135 12 0 12 2 2 9 -8 5 -18 24 -22 42 -4 19 -8 -185 -9 -452 -1 -541 2
-517 -72 -635 -45 -73 -56 -84 -78 -84 -11 0 -10 5 3 23 55 77 87 128 100 158
12 30 15 138 18 652 2 357 -1 618 -6 620 -5 2 -4 12 2 24 12 21 7 33 -14 33
-14 0 -16 -87 -2 -96 4 -3 8 -17 7 -32 -1 -26 -1 -26 -7 -4 -4 13 -6 -233 -6
-546 1 -313 4 -574 8 -580 3 -6 2 -13 -3 -16 -4 -3 -11 -19 -14 -35 -3 -16
-12 -35 -19 -42 -7 -8 -22 -30 -32 -51 -12 -22 -25 -34 -33 -31 -8 3 -11 0 -8
-9 4 -9 0 -15 -10 -15 -18 0 -105 93 -105 112 0 7 -6 15 -13 18 -7 2 -21 22
-32 43 -11 22 -29 49 -40 62 -11 13 -20 27 -19 30 1 4 -10 24 -22 44 -13 21
-24 42 -24 47 0 5 -7 22 -15 37 -8 16 -15 37 -15 46 0 9 -5 18 -11 20 -5 2
-11 10 -13 18 -2 8 -6 22 -9 30 -4 8 -9 28 -11 43 -7 43 -38 117 -46 112 -4
-2 -4 15 0 38 6 28 4 44 -3 49 -6 4 -11 24 -10 45 0 29 -1 33 -7 18 -5 -12 -9
29 -11 105 -4 227 -2 283 11 275 6 -4 10 8 10 29 0 19 6 37 13 40 9 5 9 7 0
12 -8 3 -11 16 -7 32 5 22 3 24 -6 12 -10 -13 -11 -13 -7 0 2 8 11 14 21 12
19 -3 19 -2 6 32 -6 17 -6 27 1 32 6 3 8 13 5 21 -8 20 12 53 28 47 8 -3 17
-1 21 5 3 6 -1 11 -9 11 -21 0 -20 27 0 38 11 6 15 17 12 30 -4 13 -1 20 5 19
6 -1 12 12 14 28 4 49 6 54 15 52 5 -1 19 24 32 56 12 32 25 55 29 51 4 -4 7
2 7 14 0 12 4 22 8 22 5 0 22 25 37 55 20 38 32 51 38 42 6 -8 7 -6 3 6 -3 11
0 20 10 24 9 3 20 16 24 29 6 14 15 22 23 18 8 -3 17 2 21 12 5 14 4 15 -9 4
-24 -20 -17 3 9 28 15 14 31 20 42 16 16 -5 16 -4 4 5 -12 8 -9 16 20 46 19
19 40 33 47 31 18 -7 43 22 36 41 -5 12 -2 15 10 10 11 -4 17 -1 17 7 0 7 8
20 17 27 9 8 14 9 10 2 -5 -8 -1 -8 17 0 14 7 20 15 14 18 -7 4 -7 9 1 13 6 4
11 4 11 1 0 -3 15 8 33 24 17 17 37 31 43 31 6 0 17 7 24 15 15 18 35 20 24 3
-4 -7 -3 -8 5 -4 6 4 9 12 6 17 -4 5 1 9 9 9 9 0 16 3 16 8 0 9 111 58 122 54
5 -1 8 2 8 7 0 5 12 13 28 19 15 6 36 14 47 18 11 4 26 6 34 5 7 -1 11 2 8 6
-5 8 110 38 288 75 88 19 400 14 490 -7 39 -9 80 -18 93 -18 12 -1 22 -6 22
-10 0 -5 6 -7 13 -4 6 2 23 0 37 -5 14 -6 32 -11 42 -13 18 -4 152 -60 180
-75 10 -6 23 -10 29 -10 5 0 25 -11 43 -25 18 -14 36 -25 39 -25 15 0 155 -92
193 -127 14 -13 29 -23 33 -23 15 0 33 -28 21 -32 -5 -1 -1 -9 11 -16 12 -8
18 -9 14 -3 -3 6 -1 11 4 11 6 0 11 -5 11 -11 0 -6 11 -20 25 -30 15 -13 22
-26 19 -37 -5 -14 -4 -15 5 -2 9 13 13 12 26 -7 8 -12 23 -29 31 -38 9 -8 13
-23 10 -32 -6 -14 -4 -14 10 -2 15 12 17 12 12 -1 -5 -17 6 -31 40 -49 16 -8
21 -18 17 -29 -3 -9 -3 -13 1 -9 9 9 61 -73 115 -181 23 -45 46 -85 51 -88 6
-4 9 -3 6 2 -2 5 -10 25 -18 44 -35 91 -151 280 -171 280 -5 0 -8 3 -7 8 5 13
-94 125 -177 200 -202 184 -462 318 -740 380 -126 29 -321 37 -465 21z"/>
<path d="M3628 5733 c7 -3 16 -2 19 1 4 3 -2 6 -13 5 -11 0 -14 -3 -6 -6z"/>
<path d="M2300 5706 c0 -2 7 -7 16 -10 8 -3 12 -2 9 4 -6 10 -25 14 -25 6z"/>
<path d="M3690 5699 c0 -5 5 -7 10 -4 6 3 10 8 10 11 0 2 -4 4 -10 4 -5 0 -10
-5 -10 -11z"/>
<path d="M3615 5690 c-3 -5 -1 -10 4 -10 6 0 11 5 11 10 0 6 -2 10 -4 10 -3 0
-8 -4 -11 -10z"/>
<path d="M2165 5644 c-136 -73 -312 -213 -423 -337 -111 -126 -252 -341 -188
-287 8 6 12 18 9 26 -3 8 0 14 6 14 6 0 11 -4 11 -9 0 -5 9 -7 20 -4 11 3 20
9 20 14 0 5 -7 6 -15 3 -26 -10 -17 23 21 76 20 28 40 48 45 44 5 -3 6 2 3 10
-3 9 -2 16 3 16 5 0 17 14 26 30 10 17 25 30 33 30 8 0 12 5 9 10 -3 6 -2 10
2 10 5 0 26 23 48 50 22 28 43 50 48 50 4 0 5 -5 1 -12 -4 -7 -3 -8 4 -4 7 4
12 13 12 20 0 15 59 62 72 58 5 -1 7 2 4 7 -7 11 137 119 170 127 13 3 21 10
18 15 -3 5 1 9 10 9 8 0 16 3 18 8 2 4 23 17 48 29 25 13 38 23 30 23 -8 0
-38 -12 -65 -26z"/>
<path d="M3725 5660 c-3 -5 1 -10 10 -10 9 0 13 5 10 10 -3 6 -8 10 -10 10 -2
0 -7 -4 -10 -10z"/>
<path d="M3797 5659 c7 -7 15 -10 18 -7 3 3 -2 9 -12 12 -14 6 -15 5 -6 -5z"/>
<path d="M2728 5653 c7 -3 16 -2 19 1 4 3 -2 6 -13 5 -11 0 -14 -3 -6 -6z"/>
<path d="M3228 5653 c7 -3 16 -2 19 1 4 3 -2 6 -13 5 -11 0 -14 -3 -6 -6z"/>
<path d="M2595 5630 l-20 -9 20 0 c11 0 27 4 35 9 13 9 13 10 0 9 -8 0 -24 -4
-35 -9z"/>
<path d="M3830 5637 c0 -2 41 -30 90 -62 50 -32 90 -63 90 -67 0 -4 4 -8 10
-8 5 0 24 -15 43 -32 18 -18 55 -54 83 -80 150 -142 261 -294 354 -484 76
-156 82 -172 70 -179 -6 -4 -10 -11 -10 -16 0 -6 7 -3 16 6 15 15 15 20 -1 63
-68 181 -182 368 -323 530 -83 95 -331 300 -346 285 -3 -3 -6 -1 -6 5 0 6 -13
18 -30 27 -28 15 -40 18 -40 12z"/>
<path d="M3670 5616 c0 -2 7 -7 16 -10 8 -3 12 -2 9 4 -6 10 -25 14 -25 6z"/>
<path d="M2446 5571 c-4 -5 3 -7 14 -4 23 6 26 13 6 13 -8 0 -17 -4 -20 -9z"/>
<path d="M3948 5513 c7 -3 16 -2 19 1 4 3 -2 6 -13 5 -11 0 -14 -3 -6 -6z"/>
<path d="M3894 5486 c11 -9 24 -16 30 -16 12 0 7 5 -24 19 -24 11 -24 11 -6
-3z"/>
<path d="M2066 5475 c-11 -8 -15 -15 -10 -15 6 0 19 7 30 15 10 8 15 14 9 14
-5 0 -19 -6 -29 -14z"/>
<path d="M3947 5453 c-4 -3 2 -13 14 -21 26 -18 32 -12 9 10 -9 10 -20 15 -23
11z"/>
<path d="M4037 5449 c7 -7 15 -10 18 -7 3 3 -2 9 -12 12 -14 6 -15 5 -6 -5z"/>
<path d="M1998 5443 c7 -3 16 -2 19 1 4 3 -2 6 -13 5 -11 0 -14 -3 -6 -6z"/>
<path d="M2150 5440 c-9 -6 -10 -10 -3 -10 6 0 15 5 18 10 8 12 4 12 -15 0z"/>
<path d="M1994 5417 c-5 -7 -25 -25 -43 -40 -19 -15 -32 -29 -30 -31 2 -2 26
16 54 40 27 24 45 44 40 44 -6 -1 -15 -6 -21 -13z"/>
<path d="M4030 5420 c0 -5 5 -10 11 -10 5 0 7 5 4 10 -3 6 -8 10 -11 10 -2 0
-4 -4 -4 -10z"/>
<path d="M4066 5404 c-5 -14 -4 -15 9 -4 17 14 19 20 6 20 -5 0 -12 -7 -15
-16z"/>
<path d="M4021 5382 c129 -105 253 -252 331 -392 71 -128 91 -160 96 -156 3 3
0 12 -7 20 -6 8 -14 25 -16 37 -3 13 -9 25 -15 27 -6 2 -8 8 -4 13 3 5 -3 17
-14 27 -11 9 -35 46 -53 82 -35 68 -52 92 -81 119 -10 8 -18 18 -18 22 0 20
-221 229 -242 229 -6 0 4 -12 23 -28z"/>
<path d="M1878 5373 c7 -3 16 -2 19 1 4 3 -2 6 -13 5 -11 0 -14 -3 -6 -6z"/>
<path d="M4114 5360 c0 -11 3 -20 7 -20 4 0 9 9 12 20 3 12 0 20 -7 20 -6 0
-12 -9 -12 -20z"/>
<path d="M1880 5319 c-11 -19 -10 -20 9 -9 22 11 29 30 11 30 -5 0 -14 -9 -20
-21z"/>
<path d="M4160 5306 c0 -2 8 -10 18 -17 15 -13 16 -12 3 4 -13 16 -21 21 -21
13z"/>
<path d="M1835 5280 c3 -5 -4 -15 -15 -22 -30 -19 -158 -195 -196 -271 -23
-45 -7 -26 61 73 66 97 132 179 157 198 22 16 23 32 2 32 -8 0 -12 -4 -9 -10z"/>
<path d="M4200 5269 c0 -5 5 -7 10 -4 6 3 10 8 10 11 0 2 -4 4 -10 4 -5 0 -10
-5 -10 -11z"/>
<path d="M4260 5226 c0 -2 7 -9 15 -16 13 -11 14 -10 9 4 -5 14 -24 23 -24 12z"/>
<path d="M4298 5174 c-7 -6 14 -54 24 -54 4 0 10 5 13 10 3 6 1 10 -4 10 -6 0
-11 6 -11 14 0 16 -14 29 -22 20z"/>
<path d="M1690 5150 c0 -11 -4 -20 -9 -20 -5 0 -12 -7 -15 -16 -8 -22 10 -8
34 26 18 25 19 30 6 30 -9 0 -16 -9 -16 -20z"/>
<path d="M2227 5113 c-4 -3 -71 -6 -149 -6 -154 1 -211 -4 -203 -18 3 -4 126
-8 273 -8 l267 -1 104 -107 c103 -108 184 -190 634 -651 130 -134 237 -248
237 -253 0 -5 3 -9 8 -9 4 0 7 230 7 510 l0 510 245 0 c197 1 241 3 225 13
-13 8 -64 12 -147 11 -73 0 -128 4 -128 9 0 6 -5 6 -12 0 -14 -10 -120 -9
-137 2 -6 3 -11 0 -11 -7 0 -11 -2 -11 -9 0 -6 10 -15 6 -39 -17 -18 -16 -32
-35 -32 -43 0 -10 3 -9 10 2 6 10 10 -100 10 -319 0 -228 -4 -339 -11 -348 -8
-9 -8 -13 0 -13 6 0 11 -17 10 -42 -1 -36 -2 -39 -9 -18 -6 20 -7 16 -7 -20 0
-32 2 -39 8 -25 5 13 8 -6 8 -54 1 -60 -1 -71 -12 -62 -8 6 -17 8 -20 4 -4 -3
-7 -1 -7 5 0 7 -27 39 -61 71 -38 38 -58 64 -53 72 5 8 3 9 -5 4 -7 -4 -20 1
-31 13 -14 15 -16 22 -7 25 7 3 4 6 -6 6 -20 1 -84 59 -80 73 2 4 -2 8 -7 8
-15 0 -130 122 -124 132 3 5 0 7 -8 6 -8 -2 -12 5 -11 17 1 11 0 14 -3 7 -4
-9 -40 21 -105 88 -54 55 -99 105 -99 110 0 6 -7 10 -16 10 -8 0 -12 5 -9 10
3 6 2 10 -3 10 -10 0 -23 13 -152 150 -49 52 -90 98 -90 103 0 4 -7 7 -16 7
-8 0 -13 4 -10 9 8 12 -26 17 -120 20 -43 1 -81 4 -85 6 -3 3 -9 2 -12 -2z"/>
<path d="M1621 5094 c0 -11 3 -14 6 -6 3 7 2 16 -1 19 -3 4 -6 -2 -5 -13z"/>
<path d="M1872 5057 c9 -9 24 -17 33 -17 11 0 15 -5 11 -16 -3 -8 -2 -12 4 -9
6 4 16 0 24 -7 8 -7 23 -21 35 -30 11 -10 21 -27 21 -37 0 -11 4 -22 9 -25 5
-4 7 3 4 14 -8 29 2 24 25 -12 20 -31 16 -58 -9 -58 -16 0 -9 19 9 22 12 2 13
6 5 11 -8 5 -19 -3 -30 -20 -14 -21 -18 -48 -19 -126 0 -55 3 -91 7 -81 6 18
7 18 12 -1 3 -11 5 8 4 41 -2 46 1 60 11 57 6 -3 12 -9 12 -15 0 -5 11 -19 23
-31 13 -12 45 -46 70 -75 26 -29 47 -50 47 -47 0 4 7 0 15 -9 8 -8 15 -17 15
-20 0 -10 150 -156 160 -156 6 0 9 -72 8 -212 -1 -117 0 -351 1 -520 2 -281 4
-310 22 -347 11 -23 32 -47 49 -56 29 -15 40 -35 20 -35 -45 0 -104 74 -114
145 -2 17 -5 171 -5 344 -1 173 -3 312 -7 309 -3 -3 -5 -38 -6 -77 0 -68 -1
-71 -25 -71 -14 0 -22 -4 -18 -10 4 -6 14 -8 23 -6 16 5 17 -17 17 -258 0
-210 3 -269 15 -291 10 -19 11 -28 3 -33 -8 -5 -9 -13 -3 -22 8 -12 10 -11 10
4 0 19 1 19 20 -2 12 -12 25 -22 30 -22 6 0 10 -4 10 -8 0 -4 -33 -14 -72 -21
-40 -7 -95 -19 -123 -26 -27 -7 -85 -20 -128 -30 -115 -26 -87 -30 34 -4 57
12 122 25 144 29 22 5 51 11 65 14 14 4 41 9 60 12 19 3 41 7 48 9 8 3 10 0 6
-6 -4 -7 -1 -10 7 -7 20 7 38 60 22 65 -7 3 -13 11 -13 19 0 9 -4 13 -9 10
-17 -11 -31 21 -39 90 -12 91 -12 103 -9 226 1 46 -2 69 -10 73 -7 2 -13 15
-13 27 0 19 2 20 10 8 9 -13 10 -13 10 0 0 8 1 146 1 305 1 160 6 298 11 308
6 12 5 17 -6 17 -10 0 -14 10 -14 30 1 17 5 30 10 30 5 0 6 5 3 10 -11 19 -16
62 -6 56 5 -4 13 -1 17 5 5 8 0 10 -18 6 -17 -5 -30 -1 -44 13 -10 11 -30 31
-44 45 -13 14 -22 25 -20 26 47 6 61 6 65 -2 3 -5 -1 -6 -10 -3 -11 5 -14 2
-9 -9 3 -9 12 -13 20 -10 8 3 14 0 14 -6 0 -6 5 -11 10 -11 23 0 60 -55 55
-80 -2 -14 -2 -19 1 -12 9 19 34 14 34 -8 0 -12 5 -17 13 -14 8 3 18 -6 25
-21 6 -14 18 -25 26 -25 8 0 18 -5 22 -12 4 -7 3 -8 -4 -4 -8 4 -10 2 -6 -8 3
-9 12 -12 22 -9 12 5 14 2 9 -11 -4 -10 -3 -15 3 -11 6 3 10 -1 10 -9 0 -9 6
-15 13 -13 6 1 11 -4 10 -10 -2 -7 4 -13 13 -13 10 0 14 -6 11 -14 -4 -11 -1
-13 10 -9 11 4 14 2 9 -5 -4 -7 -1 -12 8 -12 9 0 16 -5 16 -11 0 -7 12 -23 28
-37 15 -13 21 -21 13 -17 -9 6 -12 4 -7 -3 4 -7 11 -12 15 -12 5 0 26 -17 47
-37 21 -20 32 -33 24 -28 -8 5 8 -14 35 -41 28 -27 53 -49 56 -47 3 1 12 -9
19 -22 7 -14 19 -25 27 -25 7 0 13 -3 13 -7 0 -5 35 -45 78 -91 42 -45 82 -88
88 -95 7 -6 42 -40 78 -75 37 -35 64 -67 61 -72 -3 -6 0 -7 8 -4 8 3 18 1 22
-5 3 -6 10 -11 15 -11 4 0 -64 73 -153 163 -152 154 -202 205 -387 403 -85 90
-197 217 -215 241 -7 10 -17 13 -25 8 -9 -5 -11 -4 -6 4 5 8 -25 46 -81 104
-49 51 -113 118 -143 150 -29 31 -58 57 -63 57 -6 0 0 -11 13 -25 13 -14 20
-28 16 -32 -4 -4 -11 -1 -16 7 -6 8 -10 10 -10 5 0 -12 29 -57 44 -67 7 -5 5
-8 -5 -8 -27 0 -55 51 -54 98 2 42 0 45 -138 183 -130 132 -153 161 -110 145
9 -4 107 -7 217 -8 211 -1 242 -7 229 -46 -4 -15 -3 -15 6 -2 10 13 12 13 21
0 5 -8 8 -21 5 -28 -3 -8 2 -12 12 -10 10 2 18 -3 18 -11 0 -17 21 -26 29 -13
3 5 -20 37 -52 71 l-57 60 -250 4 c-137 2 -261 8 -275 12 -23 8 -24 8 -8 -8z
m232 -199 c6 -4 7 -11 2 -15 -9 -10 -36 25 -36 46 1 12 3 11 12 -4 6 -11 16
-23 22 -27z m11 -39 c-4 12 -2 21 4 21 11 0 15 -21 11 -49 -1 -13 1 -13 14 -2
14 12 16 12 11 -2 -4 -8 -2 -18 4 -22 6 -3 11 -1 11 5 0 6 5 8 11 4 8 -5 8 -8
0 -14 -7 -3 -9 -14 -5 -23 3 -9 10 -15 15 -12 4 3 13 -3 18 -14 8 -14 7 -20
-4 -25 -10 -4 -20 3 -27 19 -6 14 -16 25 -22 25 -6 0 -21 16 -34 35 -12 19
-27 35 -32 35 -6 0 -10 7 -10 16 0 9 -5 12 -12 8 -7 -5 -9 -2 -5 9 4 11 2 14
-9 10 -15 -5 -19 8 -7 21 4 4 23 -9 41 -29 24 -26 32 -31 27 -16z m22 -109
c39 -41 80 -85 91 -98 93 -107 146 -161 153 -156 12 7 11 -7 -1 -26 -6 -10
-12 -11 -18 -5 -66 73 -150 165 -211 230 -117 123 -141 154 -141 178 1 20 4
18 28 -13 15 -19 59 -69 99 -110z m165 -67 c17 -21 35 -51 23 -40 -5 4 -17 0
-27 -10 -19 -17 -26 -5 -7 14 7 7 6 15 -5 26 -9 9 -16 18 -16 21 0 12 17 5 32
-11z m95 -1195 c-3 -8 -6 -5 -6 6 -1 11 2 17 5 13 3 -3 4 -12 1 -19z"/>
<path d="M3430 5028 c0 -16 5 -28 11 -28 6 0 9 7 6 15 -4 8 -2 17 3 20 13 8
41 -6 33 -18 -3 -5 -2 -7 4 -4 18 12 112 16 119 6 4 -7 10 -6 19 1 7 6 36 10
64 9 43 -2 51 -5 51 -21 0 -11 4 -17 10 -13 5 3 6 13 3 23 -3 9 -3 14 2 10 4
-4 14 -3 22 4 19 16 29 2 12 -18 -18 -22 -27 -290 -10 -307 8 -8 11 -8 11 2 0
7 5 9 10 6 6 -4 10 11 10 37 0 27 -3 38 -9 30 -6 -10 -9 -8 -13 10 -5 28 1 50
12 43 4 -3 10 11 12 30 4 39 -8 48 -15 13 -3 -13 -4 9 -4 47 2 64 4 70 22 67
14 -2 16 0 7 6 -13 9 3 29 40 48 10 6 -71 9 -208 9 l-224 0 0 -27z"/>
<path d="M4251 5024 c0 -11 3 -14 6 -6 3 7 2 16 -1 19 -3 4 -6 -2 -5 -13z"/>
<path d="M4411 5020 c-1 -18 16 -46 23 -40 2 3 -2 16 -9 30 -8 15 -14 19 -14
10z"/>
<path d="M2026 5011 c-4 -6 0 -11 8 -11 9 0 16 -5 16 -11 0 -8 5 -8 15 1 9 8
29 10 50 7 22 -4 35 -2 35 5 0 7 -18 9 -50 6 -27 -3 -53 -1 -58 4 -6 6 -12 6
-16 -1z"/>
<path d="M2240 5010 c0 -5 5 -10 11 -10 5 0 7 5 4 10 -3 6 -8 10 -11 10 -2 0
-4 -4 -4 -10z"/>
<path d="M3361 5004 c0 -11 3 -14 6 -6 3 7 2 16 -1 19 -3 4 -6 -2 -5 -13z"/>
<path d="M1712 4998 c-14 -14 -16 -28 -3 -28 9 0 24 30 18 36 -2 2 -9 -2 -15
-8z"/>
<path d="M3698 5003 c7 -3 16 -2 19 1 4 3 -2 6 -13 5 -11 0 -14 -3 -6 -6z"/>
<path d="M1511 4982 c-15 -28 -14 -32 9 -32 11 0 20 5 20 11 0 6 -7 8 -16 5
-14 -5 -15 -4 -4 9 7 9 10 18 7 21 -3 3 -10 -3 -16 -14z"/>
<path d="M3506 4972 c-8 -34 -2 -53 12 -36 5 5 6 23 2 39 l-6 30 -8 -33z"/>
<path d="M3607 4981 c-4 -17 -3 -21 5 -13 5 5 8 16 6 23 -3 8 -7 3 -11 -10z"/>
<path d="M2262 4974 c-7 -8 -8 -14 -3 -14 10 0 25 19 20 25 -2 1 -10 -3 -17
-11z"/>
<path d="M2320 4979 c0 -5 5 -7 10 -4 6 3 10 8 10 11 0 2 -4 4 -10 4 -5 0 -10
-5 -10 -11z"/>
<path d="M2190 4976 c0 -2 7 -7 16 -10 8 -3 12 -2 9 4 -6 10 -25 14 -25 6z"/>
<path d="M3720 4970 c0 -5 5 -10 10 -10 6 0 10 5 10 10 0 6 -4 10 -10 10 -5 0
-10 -4 -10 -10z"/>
<path d="M2065 4953 c8 -7 21 -10 31 -6 12 4 15 3 10 -6 -5 -8 0 -20 12 -31
18 -17 22 -17 32 -5 10 12 9 15 -9 15 -16 0 -21 6 -21 25 0 21 -4 24 -34 23
-29 -1 -32 -3 -21 -15z"/>
<path d="M2316 4947 c3 -10 9 -15 12 -12 3 3 0 11 -7 18 -10 9 -11 8 -5 -6z"/>
<path d="M3460 4950 c0 -5 5 -10 10 -10 6 0 10 5 10 10 0 6 -4 10 -10 10 -5 0
-10 -4 -10 -10z"/>
<path d="M1597 4943 c-4 -3 -7 -11 -7 -17 0 -6 5 -5 12 2 6 6 9 14 7 17 -3 3
-9 2 -12 -2z"/>
<path d="M2276 4941 c-4 -5 -2 -12 3 -15 5 -4 12 -2 15 3 4 5 2 12 -3 15 -5 4
-12 2 -15 -3z"/>
<path d="M3645 4940 c-2 -3 0 -11 4 -18 5 -8 10 -6 18 7 9 14 8 18 -3 18 -8 0
-17 -3 -19 -7z"/>
<path d="M3690 4941 c0 -6 5 -13 10 -16 6 -3 10 1 10 9 0 9 -4 16 -10 16 -5 0
-10 -4 -10 -9z"/>
<path d="M3725 4941 c-3 -5 -1 -12 5 -16 5 -3 10 1 10 9 0 18 -6 21 -15 7z"/>
<path d="M1480 4931 c0 -5 -2 -16 -5 -24 -4 -8 0 -14 8 -14 9 0 14 9 13 24 -1
21 -16 34 -16 14z"/>
<path d="M2360 4929 c0 -5 5 -7 10 -4 6 3 10 8 10 11 0 2 -4 4 -10 4 -5 0 -10
-5 -10 -11z"/>
<path d="M3550 4930 c0 -5 5 -10 10 -10 6 0 10 5 10 10 0 6 -4 10 -10 10 -5 0
-10 -4 -10 -10z"/>
<path d="M2177 4914 c-8 -8 1 -24 14 -24 5 0 9 7 9 15 0 15 -12 20 -23 9z"/>
<path d="M2235 4900 c3 -5 8 -10 11 -10 2 0 4 5 4 10 0 6 -5 10 -11 10 -5 0
-7 -4 -4 -10z"/>
<path d="M2474 4894 c2 -10 8 -20 14 -22 17 -5 15 13 -2 27 -12 10 -14 9 -12
-5z"/>
<path d="M2550 4890 c0 -11 69 -84 74 -79 3 2 -13 23 -35 46 -21 23 -39 38
-39 33z"/>
<path d="M1542 4837 c-12 -27 -20 -52 -18 -55 7 -7 47 78 44 93 -2 7 -13 -10
-26 -38z"/>
<path d="M2370 4880 c0 -5 5 -10 10 -10 6 0 10 5 10 10 0 6 -4 10 -10 10 -5 0
-10 -4 -10 -10z"/>
<path d="M4476 4877 c3 -10 9 -15 12 -12 3 3 0 11 -7 18 -10 9 -11 8 -5 -6z"/>
<path d="M1456 4871 c-4 -7 -5 -15 -2 -18 9 -9 19 4 14 18 -4 11 -6 11 -12 0z"/>
<path d="M2516 4866 c3 -9 11 -16 16 -16 13 0 5 23 -10 28 -7 2 -10 -2 -6 -12z"/>
<path d="M1490 4850 c0 -5 7 -10 15 -10 8 0 15 5 15 10 0 6 -7 10 -15 10 -8 0
-15 -4 -15 -10z"/>
<path d="M2345 4851 c-3 -5 -1 -12 5 -16 5 -3 10 1 10 9 0 18 -6 21 -15 7z"/>
<path d="M2410 4844 c0 -8 5 -12 10 -9 6 4 8 11 5 16 -9 14 -15 11 -15 -7z"/>
<path d="M2486 4835 c4 -8 9 -15 13 -15 4 0 8 7 8 15 0 8 -6 15 -13 15 -8 0
-11 -6 -8 -15z"/>
<path d="M3663 4834 c-3 -9 -13 -14 -24 -11 -10 3 -23 -1 -28 -7 -8 -9 -2 -12
23 -12 19 1 32 4 29 9 -2 4 3 7 11 7 9 0 16 7 16 15 0 20 -19 19 -27 -1z"/>
<path d="M4510 4815 c0 -8 4 -15 10 -15 5 0 7 7 4 15 -4 8 -8 15 -10 15 -2 0
-4 -7 -4 -15z"/>
<path d="M2375 4810 c3 -5 14 -10 23 -10 15 0 15 2 2 10 -20 13 -33 13 -25 0z"/>
<path d="M1450 4800 c0 -5 4 -10 9 -10 6 0 13 5 16 10 3 6 -1 10 -9 10 -9 0
-16 -4 -16 -10z"/>
<path d="M1422 4780 c-15 -24 -15 -30 -2 -30 6 0 10 8 11 18 0 14 2 14 9 -3 6
-13 9 -15 9 -5 1 29 -14 40 -27 20z"/>
<path d="M2495 4790 c3 -5 8 -10 11 -10 2 0 4 5 4 10 0 6 -5 10 -11 10 -5 0
-7 -4 -4 -10z"/>
<path d="M2335 4780 c3 -5 8 -10 11 -10 2 0 4 5 4 10 0 6 -5 10 -11 10 -5 0
-7 -4 -4 -10z"/>
<path d="M2650 4786 c0 -2 8 -10 18 -17 15 -13 16 -12 3 4 -13 16 -21 21 -21
13z"/>
<path d="M4460 4786 c0 -11 30 -66 36 -66 2 0 -3 15 -12 33 -19 36 -24 44 -24
33z"/>
<path d="M3670 4761 c0 -5 7 -14 15 -21 16 -14 18 -10 9 14 -6 17 -24 22 -24
7z"/>
<path d="M4890 4761 c-38 -11 -118 -50 -126 -62 -4 -6 -20 -8 -38 -5 -18 4
-26 3 -18 -3 10 -6 4 -12 -20 -22 -18 -7 -39 -14 -47 -16 -8 -1 -17 -7 -21
-14 -5 -6 -19 -10 -33 -7 -15 3 -25 2 -24 -3 1 -4 -7 -15 -18 -23 -20 -15 -20
-15 4 -16 20 0 163 60 335 141 47 22 72 19 45 -5 -8 -7 -79 -41 -159 -76 -147
-64 -177 -80 -148 -80 9 0 24 -3 34 -7 11 -4 15 -3 10 5 -13 21 91 38 106 17
5 -6 8 -2 8 8 0 15 -5 17 -30 12 -44 -10 -36 1 15 21 44 16 46 16 60 -2 8 -10
15 -14 15 -7 0 6 -5 15 -10 18 -8 5 -7 11 1 21 14 17 36 18 42 2 4 -8 8 -4 12
9 4 13 20 27 39 33 23 7 32 16 32 33 0 35 -16 42 -66 28z"/>
<path d="M3520 4750 c0 -5 5 -10 11 -10 5 0 7 5 4 10 -3 6 -8 10 -11 10 -2 0
-4 -4 -4 -10z"/>
<path d="M3741 4724 c0 -11 3 -14 6 -6 3 7 2 16 -1 19 -3 4 -6 -2 -5 -13z"/>
<path d="M3643 4711 c-15 -12 -20 -25 -16 -40 3 -11 9 -19 13 -16 5 3 6 14 3
25 -4 14 0 20 11 20 9 0 16 7 16 15 0 18 0 18 -27 -4z"/>
<path d="M1430 4705 c-8 -9 -8 -15 -2 -15 12 0 26 19 19 26 -2 2 -10 -2 -17
-11z"/>
<path d="M1377 4660 c-10 -29 -16 -54 -13 -57 9 -9 38 67 34 89 -2 13 -9 2
-21 -32z"/>
<path d="M3550 4701 c0 -6 5 -13 10 -16 6 -3 10 1 10 9 0 9 -4 16 -10 16 -5 0
-10 -4 -10 -9z"/>
<path d="M4421 4694 c0 -11 3 -14 6 -6 3 7 2 16 -1 19 -3 4 -6 -2 -5 -13z"/>
<path d="M2740 4690 c0 -5 5 -10 11 -10 5 0 7 5 4 10 -3 6 -8 10 -11 10 -2 0
-4 -4 -4 -10z"/>
<path d="M3698 4693 c7 -3 16 -2 19 1 4 3 -2 6 -13 5 -11 0 -14 -3 -6 -6z"/>
<path d="M3742 4690 c-2 -8 -3 -63 -2 -122 1 -84 -1 -108 -12 -108 -10 0 -10
-2 -1 -8 15 -9 16 -232 2 -232 -5 0 -9 -7 -9 -16 0 -8 5 -12 10 -9 14 9 11
-285 -3 -303 -12 -15 -6 -24 11 -13 9 6 12 101 9 417 -1 225 -4 402 -5 394z"/>
<path d="M2040 4669 c0 -18 2 -19 15 -9 15 12 12 30 -6 30 -5 0 -9 -10 -9 -21z"/>
<path d="M3778 4660 c2 -16 8 -30 12 -30 5 0 11 -12 13 -27 2 -16 5 -4 6 25 0
33 -3 51 -9 47 -5 -3 -10 -1 -10 4 0 6 -4 11 -8 11 -5 0 -7 -13 -4 -30z"/>
<path d="M4500 4680 c0 -5 5 -10 11 -10 5 0 7 5 4 10 -3 6 -8 10 -11 10 -2 0
-4 -4 -4 -10z"/>
<path d="M4916 4673 c-20 -70 -35 -128 -40 -158 -2 -11 -6 -27 -9 -35 -28 -78
-34 -120 -17 -120 6 0 9 3 9 8 -4 21 2 32 14 26 8 -5 8 -2 -2 9 -9 11 -10 17
-2 17 6 0 11 13 11 28 0 16 3 32 7 36 4 3 8 12 9 19 1 7 9 39 17 71 9 33 14
63 11 67 -2 4 0 10 6 14 13 8 13 35 1 35 -5 0 -12 -8 -15 -17z"/>
<path d="M2765 4660 c3 -5 8 -10 11 -10 2 0 4 5 4 10 0 6 -5 10 -11 10 -5 0
-7 -4 -4 -10z"/>
<path d="M4426 4653 c-6 -14 -5 -15 5 -6 7 7 10 15 7 18 -3 3 -9 -2 -12 -12z"/>
<path d="M3696 4635 c-3 -8 -1 -15 4 -15 6 0 10 7 10 15 0 8 -2 15 -4 15 -2 0
-6 -7 -10 -15z"/>
<path d="M2056 4631 c-8 -13 4 -41 17 -41 8 0 8 3 0 11 -6 6 -9 18 -6 25 6 16
-3 19 -11 5z"/>
<path d="M4440 4630 c0 -5 5 -10 11 -10 5 0 7 5 4 10 -3 6 -8 10 -11 10 -2 0
-4 -4 -4 -10z"/>
<path d="M2805 4620 c3 -5 8 -10 11 -10 2 0 4 5 4 10 0 6 -5 10 -11 10 -5 0
-7 -4 -4 -10z"/>
<path d="M4790 4621 c0 -5 5 -13 10 -16 6 -3 10 -2 10 4 0 5 -4 13 -10 16 -5
3 -10 2 -10 -4z"/>
<path d="M3513 4605 c-3 -9 -3 -18 -1 -21 3 -3 8 4 11 16 6 23 -1 27 -10 5z"/>
<path d="M1400 4599 c0 -11 27 -12 34 -1 2 4 -4 9 -15 9 -10 1 -19 -2 -19 -8z"/>
<path d="M2099 4599 c-11 -7 -11 -9 3 -9 9 0 18 -4 20 -10 2 -5 8 -6 15 -2 9
6 7 11 -6 19 -11 7 -23 8 -32 2z"/>
<path d="M2830 4604 c0 -6 12 -22 28 -37 15 -14 65 -67 112 -117 47 -51 127
-134 178 -185 70 -70 91 -97 86 -111 -4 -12 -3 -15 3 -7 11 16 127 -93 117
-110 -4 -7 -3 -9 1 -4 5 4 19 -2 31 -14 13 -12 30 -19 38 -16 8 3 17 1 19 -6
2 -7 8 -8 13 -3 5 5 5 10 -1 12 -15 6 -6 164 11 188 19 27 18 45 -1 20 -13
-17 -14 -4 -14 124 1 79 -1 145 -4 148 -3 3 -3 12 0 19 2 8 0 22 -6 32 -7 13
-11 -47 -12 -217 0 -129 0 -252 1 -272 1 -21 0 -38 -2 -38 -5 0 -323 320 -487
490 -61 63 -111 110 -111 104z"/>
<path d="M3670 4591 c0 -6 4 -13 10 -16 6 -3 7 1 4 9 -7 18 -14 21 -14 7z"/>
<path d="M1337 4512 c-20 -93 -21 -99 -4 -99 8 0 12 16 12 44 0 25 6 47 13 52
9 5 11 17 6 36 -5 20 -4 26 4 21 8 -5 10 -2 6 8 -12 30 -21 15 -37 -62z"/>
<path d="M3625 4580 c-3 -5 1 -10 9 -10 9 0 16 5 16 10 0 6 -4 10 -9 10 -6 0
-13 -4 -16 -10z"/>
<path d="M4806 4565 c4 -8 7 -15 9 -15 2 0 5 7 9 15 3 9 0 15 -9 15 -9 0 -12
-6 -9 -15z"/>
<path d="M3361 4554 c0 -11 3 -14 6 -6 3 7 2 16 -1 19 -3 4 -6 -2 -5 -13z"/>
<path d="M3780 4555 c0 -8 5 -15 10 -15 6 0 10 -5 10 -11 0 -5 -4 -7 -10 -4
-6 4 -10 -7 -10 -24 0 -17 5 -31 10 -31 6 0 10 -5 10 -11 0 -5 -4 -7 -10 -4
-7 4 -10 -79 -10 -242 0 -136 -3 -258 -6 -270 -5 -18 -2 -23 13 -23 26 0 33 8
26 28 -6 13 -8 13 -15 -4 -5 -12 -6 -4 -2 21 12 74 12 359 0 368 -7 4 -8 10
-1 15 6 4 12 55 13 115 3 92 2 107 -12 107 -9 0 -16 -7 -16 -15z"/>
<path d="M4550 4555 c0 -8 7 -15 15 -15 8 0 15 -4 15 -10 0 -5 5 -10 11 -10 5
0 8 4 5 9 -4 5 3 7 14 4 24 -6 27 -23 4 -23 -10 0 -14 -6 -10 -15 3 -8 1 -15
-5 -15 -5 0 -44 -35 -86 -77 -41 -43 -79 -77 -84 -75 -5 1 -9 -5 -9 -14 0 -8
-4 -12 -10 -9 -5 3 -10 0 -11 -7 0 -15 -111 -108 -129 -108 -6 0 -8 -5 -4 -12
5 -8 2 -9 -10 -5 -11 4 -15 3 -10 -4 3 -6 -11 -25 -32 -42 -21 -18 -39 -30
-41 -27 -1 3 -14 -10 -29 -27 -15 -18 -30 -30 -35 -27 -5 3 -9 -2 -9 -11 0 -9
-4 -14 -8 -11 -5 3 -16 -6 -26 -20 -11 -13 -26 -24 -34 -24 -8 0 -25 -10 -37
-22 -41 -40 -56 -50 -70 -44 -8 3 -12 0 -9 -8 3 -7 -8 -19 -23 -27 -15 -8 -32
-20 -36 -26 -11 -17 -38 -16 -63 2 -19 12 -24 12 -45 -3 -13 -9 -36 -24 -51
-32 -58 -32 -145 -84 -195 -116 -28 -19 -55 -34 -60 -34 -4 -1 -24 -14 -43
-30 -36 -31 -26 -39 24 -20 19 7 24 14 19 27 -6 15 -4 16 9 5 14 -11 17 -10
23 7 3 12 10 21 15 21 5 0 16 3 26 7 12 4 15 3 10 -5 -5 -8 -2 -10 8 -6 9 3
16 10 16 14 0 5 9 12 21 15 11 4 18 13 15 20 -2 7 1 16 9 19 10 3 12 0 9 -12
-3 -9 4 -2 16 16 24 35 30 38 47 21 9 -9 16 -7 29 6 17 17 17 17 -4 11 -35
-12 -25 4 13 20 20 8 40 12 45 9 6 -3 7 0 4 8 -6 17 19 29 41 21 8 -4 15 -11
15 -17 0 -6 -3 -8 -6 -5 -3 3 -23 -12 -45 -33 -22 -22 -44 -37 -49 -34 -5 3
-11 1 -15 -5 -4 -6 -11 -7 -17 -4 -7 5 -9 1 -5 -9 6 -16 -17 -32 -42 -28 -7 1
-10 -2 -7 -7 3 -6 -7 -16 -24 -24 -16 -7 -30 -16 -30 -20 0 -4 -7 -4 -17 -1
-10 4 -14 2 -10 -4 4 -6 -15 -21 -43 -34 -28 -13 -50 -26 -50 -30 0 -3 -21
-16 -47 -29 -27 -13 -54 -30 -61 -37 -7 -7 -19 -13 -25 -14 -38 -2 -78 -19
-46 -19 8 0 -21 -18 -65 -40 -43 -22 -83 -37 -89 -33 -6 3 -7 1 -3 -5 4 -7 2
-12 -4 -12 -7 0 -24 -8 -38 -19 -15 -10 -41 -22 -59 -25 -17 -4 -37 -14 -44
-22 -6 -8 -15 -14 -20 -14 -8 0 -65 -24 -177 -76 -29 -13 -59 -24 -66 -24 -8
0 -16 -5 -18 -11 -2 -6 -13 -13 -23 -14 -38 -4 -85 -18 -85 -24 0 -4 -21 -12
-47 -20 -27 -7 -59 -17 -73 -23 -14 -7 -31 -11 -37 -9 -7 1 -26 -5 -43 -14
-16 -8 -30 -13 -30 -9 0 4 -6 2 -12 -4 -7 -5 -49 -17 -93 -26 -44 -8 -102 -20
-130 -26 -27 -6 -66 -13 -85 -15 -92 -10 -179 -21 -234 -31 -33 -5 -37 -8 -21
-16 29 -17 189 1 398 43 395 81 987 341 1458 642 324 208 710 522 971 791 66
68 74 86 39 86 -10 0 -24 7 -31 15 -7 8 -23 15 -36 15 -15 0 -24 -6 -24 -15z
m-990 -845 c-24 -15 -36 -11 -14 4 10 8 21 12 24 10 2 -3 -2 -9 -10 -14z"/>
<path d="M4831 4546 c-8 -14 -12 -29 -8 -32 7 -7 29 34 25 47 -2 6 -10 -1 -17
-15z"/>
<path d="M4710 4550 c0 -5 5 -10 11 -10 5 0 7 5 4 10 -3 6 -8 10 -11 10 -2 0
-4 -4 -4 -10z"/>
<path d="M3665 4530 c4 -6 10 -8 15 -5 4 3 11 -1 13 -7 3 -8 6 -6 6 5 1 11 -6
17 -20 17 -11 0 -17 -5 -14 -10z"/>
<path d="M1396 4499 c-8 -42 0 -50 9 -9 4 17 5 34 2 36 -2 3 -7 -10 -11 -27z"/>
<path d="M2380 4520 c0 -5 5 -10 10 -10 6 0 10 5 10 10 0 6 -4 10 -10 10 -5 0
-10 -4 -10 -10z"/>
<path d="M3362 4510 c0 -14 2 -19 5 -12 2 6 2 18 0 25 -3 6 -5 1 -5 -13z"/>
<path d="M4555 4375 c-158 -158 -276 -267 -360 -330 -27 -21 -52 -41 -55 -44
-3 -4 -34 -29 -69 -56 -78 -60 -101 -82 -101 -95 0 -20 15 -9 102 73 11 10 40
31 66 48 25 16 42 29 38 29 -4 0 7 12 24 27 25 20 34 23 40 13 5 -9 1 -20 -13
-31 -12 -10 -17 -18 -12 -18 6 -1 28 15 49 34 34 29 38 36 26 50 -10 12 -10
19 -1 28 9 9 14 9 21 -3 5 -8 6 -19 3 -25 -3 -5 0 -4 8 3 9 9 10 15 2 23 -14
14 -6 39 12 39 7 0 18 7 25 15 23 28 32 15 10 -15 -28 -39 -11 -39 18 -1 15
21 18 31 9 34 -6 2 51 65 128 140 76 75 140 135 142 134 1 -2 -24 -31 -55 -65
-32 -34 -56 -64 -54 -66 2 -2 -6 -7 -17 -11 -12 -3 -21 -11 -21 -16 0 -21 20
-6 76 58 32 37 67 74 76 82 13 11 15 17 5 23 -9 5 -5 14 12 30 14 13 19 15 11
5 -7 -9 -10 -20 -7 -23 9 -9 25 30 18 46 -4 11 -47 -26 -156 -135z m-272 -309
c6 -15 -19 -30 -34 -20 -6 3 -5 11 2 20 15 18 25 18 32 0z"/>
<path d="M2090 4500 c0 -5 5 -10 10 -10 6 0 10 5 10 10 0 6 -4 10 -10 10 -5 0
-10 -4 -10 -10z"/>
<path d="M4781 4484 c0 -11 3 -14 6 -6 3 7 2 16 -1 19 -3 4 -6 -2 -5 -13z"/>
<path d="M2146 4480 c-15 -5 -16 -9 -7 -14 7 -5 18 -3 24 3 14 14 6 20 -17 11z"/>
<path d="M2526 4468 c22 -26 37 -38 42 -34 5 5 -44 56 -53 56 -5 0 0 -10 11
-22z"/>
<path d="M2833 4483 c9 -2 25 -2 35 0 9 3 1 5 -18 5 -19 0 -27 -2 -17 -5z"/>
<path d="M4804 4463 c1 -37 19 -39 24 -4 2 14 0 21 -6 17 -6 -3 -12 0 -15 6
-2 7 -4 -2 -3 -19z"/>
<path d="M2042 4440 c0 -19 2 -27 5 -17 2 9 2 25 0 35 -3 9 -5 1 -5 -18z"/>
<path d="M3660 4460 c-8 -5 -11 -12 -7 -16 4 -4 15 0 24 9 18 18 8 23 -17 7z"/>
<path d="M4730 4459 c0 -9 -39 -54 -143 -162 -15 -16 -24 -33 -21 -39 4 -6 3
-8 -3 -5 -5 3 -58 -40 -116 -96 -188 -180 -332 -309 -387 -347 -19 -14 -42
-32 -50 -41 -23 -26 -334 -255 -475 -350 -405 -273 -1007 -561 -1255 -601 -25
-4 -24 -5 5 -13 17 -4 32 -11 35 -14 6 -7 96 -52 165 -81 373 -162 816 -174
1185 -33 203 78 404 210 558 368 28 29 31 37 22 60 -5 14 -10 78 -10 141 0 71
-4 114 -10 114 -6 0 -8 -11 -4 -26 5 -18 1 -29 -12 -40 -17 -12 -17 -13 -1 -8
14 5 17 0 17 -23 0 -16 -5 -34 -12 -41 -9 -9 -9 -12 0 -12 7 0 11 -23 11 -67
l-1 -68 -77 -75 c-79 -76 -106 -100 -115 -100 -3 0 -4 14 -4 30 1 28 11 39 21
23 2 -5 2 -2 0 5 -2 9 3 11 17 7 11 -4 20 -2 20 4 0 5 -14 8 -31 6 -23 -3 -28
-1 -21 8 5 7 8 71 6 142 -1 72 -3 151 -3 178 -1 26 -5 47 -11 47 -6 0 -10 -81
-10 -224 0 -223 -3 -256 -22 -256 -10 0 -5 428 8 643 4 67 3 97 -5 97 -23 0
-9 27 22 42 52 25 227 160 227 174 0 8 7 14 15 14 8 0 15 -6 15 -12 -1 -23
-33 -54 -119 -116 -46 -34 -90 -73 -97 -88 -20 -37 -10 -42 11 -6 10 16 40 43
69 60 28 17 73 52 101 76 27 25 53 42 59 39 6 -4 6 1 2 13 -5 10 -9 24 -9 31
0 7 -4 10 -9 7 -4 -3 -8 0 -8 5 0 21 -26 11 -63 -24 -20 -19 -44 -35 -53 -35
-8 0 -13 -3 -11 -7 6 -10 -13 -27 -33 -31 -8 -2 -20 -10 -26 -18 -6 -7 -16
-14 -21 -14 -6 0 -22 -11 -36 -24 -14 -13 -28 -22 -30 -20 -2 2 -11 -4 -20
-14 -15 -17 -17 -60 -18 -402 0 -211 -3 -389 -6 -397 -3 -8 -14 -12 -27 -8
-11 2 -15 2 -8 -1 6 -3 12 -11 12 -17 0 -5 -3 -7 -6 -4 -4 3 -15 2 -25 -4 -18
-9 -25 1 -21 32 5 36 3 140 -3 163 -5 19 -4 27 2 23 6 -4 9 4 6 21 -2 15 -6
102 -8 193 -2 92 -6 173 -7 180 -2 8 3 13 10 12 17 -4 15 8 -7 35 -23 27 -47
28 -74 5 -15 -13 -18 -14 -13 -3 4 8 -2 4 -14 -10 -12 -14 -19 -18 -15 -10 4
8 -3 3 -16 -12 -13 -15 -54 -41 -91 -58 -100 -47 -97 -42 -102 -226 -3 -87 -4
-166 -4 -174 0 -8 0 -84 1 -168 2 -143 1 -154 -18 -166 -11 -6 -28 -10 -38 -8
-15 3 -18 11 -15 38 2 19 0 34 -4 34 -4 0 -8 7 -8 15 0 8 5 15 10 15 6 0 9 13
8 29 -1 16 -6 27 -10 25 -4 -3 -7 32 -6 78 1 71 2 76 8 38 l7 -45 1 42 c1 23
-2 44 -7 47 -4 3 -8 60 -8 127 1 98 -2 123 -14 130 -18 9 -59 1 -59 -12 0 -4
-10 -14 -22 -20 -22 -12 -22 -11 -8 7 8 10 0 6 -18 -9 -19 -15 -40 -27 -48
-27 -8 0 -14 -5 -14 -10 0 -6 -3 -9 -7 -8 -10 3 -57 -13 -63 -21 -12 -15 -52
-31 -62 -25 -6 4 -8 3 -4 -4 3 -6 2 -13 -4 -17 -6 -4 -8 -11 -5 -16 4 -5 1 -9
-5 -9 -7 0 -8 -6 -1 -18 6 -11 6 -24 0 -33 -9 -14 -3 -104 8 -122 3 -6 2 -8
-3 -5 -5 4 -9 -51 -10 -129 0 -143 -6 -159 -48 -143 -18 6 -21 14 -18 58 2 30
-1 53 -8 57 -8 5 -8 11 1 22 9 10 9 17 2 21 -14 9 -13 164 1 175 8 6 7 10 -1
14 -7 2 -13 9 -13 15 0 5 -7 16 -15 24 -12 12 -18 12 -37 2 -13 -7 -26 -17
-30 -23 -4 -5 -8 -7 -8 -2 0 4 -13 1 -29 -8 -30 -15 -60 -23 -96 -24 -17 -1
-17 -3 -5 -11 12 -8 11 -10 -7 -10 -12 0 -24 -4 -27 -9 -3 -5 -22 -12 -41 -15
-20 -4 -33 -11 -31 -15 3 -5 -15 -11 -41 -15 -26 -3 -54 -12 -62 -20 -21 -19
-150 -58 -164 -49 -6 3 -7 1 -3 -5 10 -16 -50 -15 -89 2 l-30 13 39 17 c22 9
45 15 52 12 7 -3 29 4 50 15 21 10 44 19 52 19 7 0 29 8 50 19 20 10 42 16 49
14 6 -2 15 1 19 8 5 8 3 9 -6 4 -9 -5 -11 -4 -6 4 4 7 13 10 19 8 6 -2 23 2
36 9 14 7 28 11 33 8 4 -3 8 -1 8 4 0 5 21 17 48 27 26 10 51 22 56 26 6 5 15
9 20 9 6 0 4 -5 -4 -10 -8 -5 -10 -10 -5 -10 6 0 17 5 25 10 8 5 11 10 5 10
-5 0 19 14 53 30 35 17 70 30 77 30 8 0 20 6 27 14 8 7 30 19 51 27 20 7 37
17 37 21 0 4 9 8 21 8 11 0 18 4 15 8 -3 5 7 15 22 22 15 7 34 16 42 21 8 5
30 16 48 25 17 9 32 20 32 24 0 5 10 6 22 2 14 -3 19 -2 14 6 -4 8 0 12 11 12
10 0 25 9 32 19 8 11 20 17 28 14 7 -3 13 1 13 10 0 8 8 17 18 21 22 7 82 42
95 55 5 5 16 7 23 4 8 -3 14 0 14 6 0 13 33 44 67 62 15 8 38 24 51 37 14 12
31 22 39 22 8 0 12 3 10 8 -3 4 11 17 31 30 25 17 31 18 21 6 -13 -16 -12 -16
8 -6 12 7 24 21 28 31 3 11 19 25 35 32 16 8 26 18 23 23 -4 5 1 7 10 3 11 -4
17 -1 17 8 0 9 6 12 17 8 10 -4 14 -2 10 4 -3 5 4 19 18 31 16 14 25 17 29 9
2 -7 5 -4 5 6 1 10 6 15 11 12 6 -3 10 0 10 8 0 7 11 19 25 25 14 6 25 16 25
22 0 5 6 10 13 10 7 0 18 9 25 20 7 11 21 20 31 20 11 0 23 9 26 21 6 17 9 19
16 8 6 -10 9 -11 9 -1 0 6 9 21 20 32 11 11 26 20 33 20 8 0 7 4 -3 10 -13 9
-13 10 0 10 9 0 27 12 41 28 44 46 98 92 109 92 12 0 12 -2 0 -35 -6 -16 -12
-173 -13 -379 -4 -383 -6 -402 -60 -446 -17 -14 -27 -19 -22 -11 9 15 14 411
5 416 -3 2 -3 46 0 99 3 53 2 96 -2 96 -15 0 -21 -26 -20 -82 1 -40 -2 -58
-11 -58 -7 0 -8 -3 -2 -8 6 -4 11 -13 13 -20 5 -27 2 -490 -3 -508 -8 -25 57
47 96 105 26 40 29 53 30 135 1 50 3 114 4 141 1 28 3 150 5 273 l2 223 130
131 c81 82 138 148 152 178 l23 47 -30 0 c-27 0 -28 -1 -11 -14 17 -12 17 -13
0 -13 -13 0 -16 -5 -12 -17 4 -10 4 -14 0 -11 -3 4 -21 -14 -39 -40 -18 -26
-39 -45 -47 -44 -7 2 -10 1 -6 -3 9 -9 -60 -83 -94 -101 -16 -8 -27 -20 -25
-27 1 -6 -4 -11 -11 -9 -8 1 -11 -2 -8 -7 3 -5 -2 -15 -11 -22 -15 -12 -16
-12 -10 3 3 10 3 17 -1 17 -21 -3 -36 2 -26 9 6 4 16 16 22 27 6 11 12 14 12
8 0 -7 5 -13 11 -13 5 0 7 5 4 10 -3 6 1 10 9 10 16 0 22 15 9 23 -5 2 -2 2 5
1 6 -2 12 4 12 12 0 8 4 13 10 9 5 -3 7 -13 4 -23 -5 -14 -4 -14 4 -3 7 10 7
21 1 33 -7 13 -6 18 4 18 7 0 24 11 37 25 12 13 27 22 31 19 5 -3 9 0 9 7 0 6
14 25 30 41 17 15 30 33 30 39 0 5 5 7 11 4 6 -4 9 0 7 11 -2 12 6 23 20 29
12 5 22 15 22 21 0 6 11 17 25 24 13 7 22 17 19 22 -3 4 3 8 13 8 11 0 26 -14
36 -33 24 -45 53 -47 30 -3 -9 17 -24 38 -34 47 -11 9 -19 21 -19 28 0 6 -4
11 -10 11 -5 0 -10 -5 -10 -11z m-860 -979 c0 -5 -7 -15 -15 -24 -16 -15 -22
-126 -7 -126 4 0 9 -75 11 -167 2 -93 4 -211 5 -263 3 -103 -4 -130 -34 -130
-10 0 -22 -5 -25 -10 -4 -6 -16 -8 -28 -4 -12 3 -19 3 -15 -1 4 -5 0 -14 -10
-21 -12 -9 -22 -9 -37 -1 -17 9 -18 8 -8 -4 10 -13 7 -17 -22 -28 -19 -7 -39
-10 -44 -7 -5 3 -9 88 -10 188 0 101 -1 189 -1 196 0 6 -4 12 -10 12 -6 0 -11
-82 -12 -212 -2 -170 -6 -212 -17 -216 -12 -4 -13 45 -10 314 2 196 8 322 14
326 6 5 5 8 -2 8 -31 0 -7 22 75 65 109 60 174 104 167 115 -3 4 4 6 15 3 11
-3 20 -9 20 -13z m-410 -280 c0 -6 -7 -13 -15 -16 -8 -4 -15 -13 -15 -21 0 -9
5 -11 13 -7 8 5 8 2 -2 -9 -8 -10 -9 -17 -3 -17 7 0 11 -66 12 -192 1 -106 3
-218 3 -248 1 -40 -2 -55 -12 -55 -11 0 -13 36 -12 187 1 117 -2 189 -9 193
-6 4 -10 -34 -11 -112 -1 -266 0 -256 -38 -275 -19 -10 -43 -15 -55 -12 -12 3
-40 1 -62 -4 l-40 -9 -1 56 c-1 161 -8 311 -14 311 -4 0 -8 -84 -9 -187 0
-103 -3 -189 -5 -191 -2 -2 -9 -1 -15 3 -16 10 -8 402 9 433 8 15 8 22 1 22
-20 0 -10 29 13 36 30 9 220 103 232 115 12 12 35 12 35 -1z m-429 -244 c-17
-21 -223 -106 -396 -165 -147 -50 -195 -60 -195 -42 0 10 21 17 125 46 113 31
428 159 447 182 7 9 14 11 21 4 7 -7 6 -15 -2 -25z m0 -58 c5 -243 3 -302 -8
-305 -10 -4 -13 21 -13 103 0 66 -4 104 -9 99 -13 -14 -21 -164 -9 -171 6 -4
6 -10 0 -16 -13 -13 -154 11 -145 25 3 5 -4 6 -17 2 -17 -6 -21 -4 -14 6 6 12
5 12 -8 1 -13 -10 -36 -6 -132 21 -64 18 -113 36 -109 41 4 4 1 5 -7 1 -8 -3
-20 3 -26 12 -9 15 -7 18 12 18 13 0 24 -4 24 -8 0 -5 5 -5 10 -2 6 4 7 11 4
17 -4 6 1 6 14 -1 29 -15 41 -13 19 3 -16 13 -12 16 40 32 32 9 63 21 68 24 6
4 26 11 45 15 19 4 68 23 107 42 40 19 74 33 75 31 2 -2 17 7 33 19 40 30 45
29 46 -9z m356 -284 c-3 -3 -12 -4 -19 -1 -8 3 -5 6 6 6 11 1 17 -2 13 -5z"/>
<path d="M3790 3415 c-7 -8 -19 -15 -26 -15 -8 0 -14 -4 -14 -10 0 -5 8 -6 18
-3 23 9 59 43 45 43 -6 0 -16 -7 -23 -15z"/>
<path d="M3715 3370 c-3 -5 -2 -10 4 -10 5 0 13 5 16 10 3 6 2 10 -4 10 -5 0
-13 -4 -16 -10z"/>
<path d="M3653 3338 c-24 -12 -32 -30 -10 -25 6 1 14 5 17 8 3 3 14 11 25 17
26 15 -1 15 -32 0z"/>
<path d="M3670 3249 c0 -5 5 -7 10 -4 6 3 10 8 10 11 0 2 -4 4 -10 4 -5 0 -10
-5 -10 -11z"/>
<path d="M3655 3181 c-3 -5 -1 -12 5 -16 5 -3 10 1 10 9 0 18 -6 21 -15 7z"/>
<path d="M3814 3165 c-3 -14 -11 -25 -18 -25 -6 0 -4 -5 4 -10 12 -8 15 -39
15 -180 0 -109 4 -169 10 -167 6 2 10 80 10 205 0 189 -6 237 -21 177z"/>
<path d="M3715 3160 c3 -5 15 -10 26 -10 10 0 19 5 19 10 0 6 -12 10 -26 10
-14 0 -23 -4 -19 -10z"/>
<path d="M3720 3110 c0 -5 7 -7 15 -4 8 4 15 8 15 10 0 2 -7 4 -15 4 -8 0 -15
-4 -15 -10z"/>
<path d="M3304 3105 c-51 -24 -95 -48 -99 -55 -4 -6 10 -2 31 9 20 11 41 18
46 15 4 -3 8 0 8 5 0 6 8 11 19 11 10 0 24 6 30 14 7 8 26 18 42 21 16 4 29
11 29 16 0 14 -8 11 -106 -36z"/>
<path d="M3302 3058 c3 -7 13 -15 23 -17 17 -3 17 -2 3 13 -20 19 -31 21 -26
4z"/>
<path d="M3220 3036 c0 -2 9 -6 20 -9 11 -3 20 -1 20 4 0 5 -9 9 -20 9 -11 0
-20 -2 -20 -4z"/>
<path d="M3377 3019 c7 -7 15 -10 18 -7 3 3 -2 9 -12 12 -14 6 -15 5 -6 -5z"/>
<path d="M3280 2985 c0 -9 7 -18 15 -22 23 -8 24 0 3 20 -15 14 -18 15 -18 2z"/>
<path d="M3240 2948 c0 -34 13 -29 25 10 5 16 2 22 -9 22 -11 0 -16 -10 -16
-32z"/>
<path d="M2950 2855 c0 -5 5 -17 10 -25 5 -8 10 -10 10 -5 0 6 -5 17 -10 25
-5 8 -10 11 -10 5z"/>
<path d="M2885 2840 c-3 -5 1 -10 9 -10 9 0 16 5 16 10 0 6 -4 10 -9 10 -6 0
-13 -4 -16 -10z"/>
<path d="M2698 2773 c7 -3 16 -2 19 1 4 3 -2 6 -13 5 -11 0 -14 -3 -6 -6z"/>
<path d="M2620 2756 c0 -2 7 -6 15 -10 8 -3 15 -1 15 4 0 6 -7 10 -15 10 -8 0
-15 -2 -15 -4z"/>
<path d="M2944 2652 c-9 -5 -8 -10 1 -19 11 -10 13 -9 12 7 -1 11 -1 20 -2 20
0 0 -5 -4 -11 -8z"/>
<path d="M2240 4450 c0 -5 5 -10 10 -10 6 0 10 5 10 10 0 6 -4 10 -10 10 -5 0
-10 -4 -10 -10z"/>
<path d="M2125 4441 c-6 -11 9 -23 19 -14 9 9 7 23 -3 23 -6 0 -12 -4 -16 -9z"/>
<path d="M2698 4443 c7 -3 16 -2 19 1 4 3 -2 6 -13 5 -11 0 -14 -3 -6 -6z"/>
<path d="M2950 4430 c0 -5 5 -10 11 -10 5 0 7 5 4 10 -3 6 -8 10 -11 10 -2 0
-4 -4 -4 -10z"/>
<path d="M2820 4420 c0 -5 5 -10 11 -10 5 0 7 5 4 10 -3 6 -8 10 -11 10 -2 0
-4 -4 -4 -10z"/>
<path d="M2870 4419 c0 -5 5 -7 10 -4 6 3 10 8 10 11 0 2 -4 4 -10 4 -5 0 -10
-5 -10 -11z"/>
<path d="M3587 4423 c-3 -5 -2 -15 2 -22 5 -7 11 -9 14 -4 3 5 2 15 -2 22 -5
7 -11 9 -14 4z"/>
<path d="M3686 4414 c-11 -7 -17 -16 -15 -19 3 -3 14 2 25 9 10 8 17 17 14 19
-3 3 -14 -1 -24 -9z"/>
<path d="M2850 4401 c0 -5 7 -12 16 -15 14 -5 15 -4 4 9 -14 17 -20 19 -20 6z"/>
<path d="M1316 4368 c-17 -80 -15 -264 4 -388 24 -158 69 -320 111 -402 5 -10
9 -25 9 -33 0 -9 5 -13 10 -10 7 4 6 14 -1 28 -20 36 -70 198 -85 272 -7 39
-20 99 -28 135 -17 73 -22 326 -7 376 5 17 5 37 1 43 -4 8 -10 0 -14 -21z"/>
<path d="M2600 4390 c0 -5 10 -15 23 -21 22 -12 22 -12 3 10 -21 23 -26 26
-26 11z"/>
<path d="M2903 4378 c-23 -11 -31 -28 -13 -28 6 0 10 4 10 8 0 5 10 14 23 20
12 6 18 11 12 11 -5 0 -20 -5 -32 -11z"/>
<path d="M2735 4370 c-3 -5 -1 -10 4 -10 6 0 11 5 11 10 0 6 -2 10 -4 10 -3 0
-8 -4 -11 -10z"/>
<path d="M3570 4370 c0 -5 5 -10 11 -10 5 0 7 5 4 10 -3 6 -8 10 -11 10 -2 0
-4 -4 -4 -10z"/>
<path d="M3620 4359 c0 -5 5 -7 10 -4 6 3 10 8 10 11 0 2 -4 4 -10 4 -5 0 -10
-5 -10 -11z"/>
<path d="M1481 4344 c0 -11 3 -14 6 -6 3 7 2 16 -1 19 -3 4 -6 -2 -5 -13z"/>
<path d="M2120 4340 c0 -5 5 -10 11 -10 5 0 7 5 4 10 -3 6 -8 10 -11 10 -2 0
-4 -4 -4 -10z"/>
<path d="M2760 4335 c0 -8 4 -15 10 -15 5 0 7 7 4 15 -4 8 -8 15 -10 15 -2 0
-4 -7 -4 -15z"/>
<path d="M2922 4328 c-14 -14 -16 -28 -3 -28 5 0 11 9 14 20 6 23 5 24 -11 8z"/>
<path d="M3540 4330 c0 -5 4 -10 9 -10 6 0 13 5 16 10 3 6 -1 10 -9 10 -9 0
-16 -4 -16 -10z"/>
<path d="M4722 4336 c3 -4 0 -24 -9 -43 -15 -38 -10 -109 8 -98 5 4 9 -2 10
-12 0 -12 2 -14 6 -5 3 8 -1 25 -8 39 -8 15 -10 27 -3 31 14 10 15 81 1 89 -7
3 -9 3 -5 -1z"/>
<path d="M2180 4318 c0 -9 5 -20 10 -23 13 -8 13 5 0 25 -8 13 -10 13 -10 -2z"/>
<path d="M2660 4327 c0 -2 16 -20 35 -41 41 -45 48 -33 8 13 -23 26 -43 39
-43 28z"/>
<path d="M3010 4320 c0 -5 6 -10 14 -10 8 0 18 5 21 10 3 6 -3 10 -14 10 -12
0 -21 -4 -21 -10z"/>
<path d="M2715 4310 c3 -5 11 -10 16 -10 6 0 7 5 4 10 -3 6 -11 10 -16 10 -6
0 -7 -4 -4 -10z"/>
<path d="M2790 4311 c0 -6 5 -13 10 -16 6 -3 10 1 10 9 0 9 -4 16 -10 16 -5 0
-10 -4 -10 -9z"/>
<path d="M3520 4300 c0 -5 5 -10 10 -10 6 0 10 5 10 10 0 6 -4 10 -10 10 -5 0
-10 -4 -10 -10z"/>
<path d="M2090 4280 c0 -5 5 -10 10 -10 6 0 10 5 10 10 0 6 -4 10 -10 10 -5 0
-10 -4 -10 -10z"/>
<path d="M2135 4280 c3 -5 8 -10 11 -10 2 0 4 5 4 10 0 6 -5 10 -11 10 -5 0
-7 -4 -4 -10z"/>
<path d="M3085 4280 c3 -5 10 -10 16 -10 5 0 9 5 9 10 0 6 -7 10 -16 10 -8 0
-12 -4 -9 -10z"/>
<path d="M4350 4275 c-7 -9 -8 -15 -2 -15 5 0 12 7 16 15 3 8 4 15 2 15 -2 0
-9 -7 -16 -15z"/>
<path d="M2915 4270 c3 -5 10 -10 16 -10 5 0 9 5 9 10 0 6 -7 10 -16 10 -8 0
-12 -4 -9 -10z"/>
<path d="M2190 4260 c0 -5 -8 -10 -17 -10 -15 0 -15 -2 -4 -9 8 -5 20 -7 28
-4 15 6 18 33 3 33 -5 0 -10 -4 -10 -10z"/>
<path d="M4461 4229 c-23 -23 -41 -44 -39 -48 2 -4 26 15 53 41 28 26 45 48
39 48 -6 0 -30 -19 -53 -41z"/>
<path d="M2108 4243 c7 -3 16 -2 19 1 4 3 -2 6 -13 5 -11 0 -14 -3 -6 -6z"/>
<path d="M2756 4228 c35 -42 54 -59 54 -48 0 11 -56 70 -67 70 -3 0 2 -10 13
-22z"/>
<path d="M2945 4229 c-15 -6 -11 -8 18 -8 20 -1 37 1 37 3 0 9 -37 12 -55 5z"/>
<path d="M3516 4214 c-9 -24 -4 -24 18 -3 16 16 17 19 4 19 -9 0 -19 -7 -22
-16z"/>
<path d="M4630 4175 c-25 -30 -80 -87 -123 -126 -84 -77 -98 -107 -20 -43 72
59 150 140 158 163 13 42 26 21 21 -31 -3 -29 -8 -84 -11 -123 -8 -84 -51
-310 -66 -337 -5 -10 -15 -15 -21 -12 -7 5 -9 1 -5 -9 3 -10 2 -17 -3 -17 -5
0 -7 -6 -4 -14 3 -8 -13 -50 -35 -93 -23 -43 -41 -82 -41 -86 0 -4 -9 -18 -21
-30 l-21 -22 4 25 c2 15 9 24 17 22 11 -2 12 0 3 10 -7 9 -12 74 -14 169 -3
168 -4 164 50 153 13 -2 20 -9 17 -14 -3 -6 -1 -10 4 -10 18 0 12 19 -8 30
-11 5 -33 10 -50 10 l-31 0 -1 -112 c0 -62 -4 -176 -8 -253 -5 -77 -8 -141 -7
-142 4 -4 107 204 145 293 54 125 78 206 100 343 21 123 34 311 23 311 -4 0
-27 -25 -52 -55z"/>
<path d="M2255 4210 c3 -5 11 -10 16 -10 6 0 7 5 4 10 -3 6 -11 10 -16 10 -6
0 -7 -4 -4 -10z"/>
<path d="M3560 4205 c-7 -9 -11 -18 -8 -20 3 -3 11 1 18 10 7 9 11 18 8 20 -3
3 -11 -1 -18 -10z"/>
<path d="M2085 4200 c3 -5 11 -10 16 -10 6 0 7 5 4 10 -3 6 -11 10 -16 10 -6
0 -7 -4 -4 -10z"/>
<path d="M2973 4203 c-17 -6 -16 -23 1 -23 8 0 16 7 20 15 6 15 1 17 -21 8z"/>
<path d="M2920 4190 c0 -6 7 -10 15 -10 8 0 15 2 15 4 0 2 -7 6 -15 10 -8 3
-15 1 -15 -4z"/>
<path d="M3106 4182 c-3 -6 -1 -14 5 -17 15 -10 25 3 12 16 -7 7 -13 7 -17 1z"/>
<path d="M2176 4173 c5 -5 12 -12 16 -18 4 -6 8 -2 8 8 0 9 -7 17 -17 17 -9 0
-12 -3 -7 -7z"/>
<path d="M3188 4168 c9 -9 15 -9 24 0 9 9 7 12 -12 12 -19 0 -21 -3 -12 -12z"/>
<path d="M3500 4170 c0 -5 5 -10 11 -10 5 0 7 5 4 10 -3 6 -8 10 -11 10 -2 0
-4 -4 -4 -10z"/>
<path d="M2820 4162 c0 -16 192 -212 201 -206 15 9 10 27 -5 21 -9 -4 -17 2
-21 13 -3 10 -12 21 -20 24 -18 6 -20 36 -3 36 6 0 8 3 5 6 -4 4 -13 2 -20 -5
-11 -9 -24 0 -63 45 -27 31 -50 61 -52 65 -5 11 -22 12 -22 1z"/>
<path d="M3157 4163 c-4 -3 -7 -11 -7 -17 0 -6 5 -5 12 2 6 6 9 14 7 17 -3 3
-9 2 -12 -2z"/>
<path d="M4712 4136 c-1 -17 -4 -65 -7 -107 -2 -41 -9 -88 -15 -105 -6 -16
-12 -47 -12 -69 0 -22 -5 -46 -10 -53 -6 -7 -8 -29 -4 -51 6 -37 -11 -71 -27
-54 -4 3 -7 1 -7 -5 0 -7 4 -12 8 -12 5 0 7 -13 4 -30 -2 -16 -9 -30 -15 -30
-6 0 -7 -3 -4 -7 4 -3 0 -17 -9 -31 -8 -13 -13 -30 -10 -38 3 -8 1 -14 -4 -14
-6 0 -10 -11 -10 -24 0 -14 -4 -28 -10 -31 -5 -3 -10 -10 -10 -16 0 -14 20
-11 24 4 23 79 30 97 38 85 5 -8 6 -2 2 15 -4 18 -2 27 6 27 7 0 10 7 6 15 -3
8 -2 15 3 15 5 0 12 20 16 45 3 25 10 43 16 40 9 -6 13 34 9 83 -1 12 3 22 9
22 6 0 10 15 10 33 -1 17 4 44 10 60 6 15 7 27 3 27 -4 0 -8 9 -8 19 0 11 4
17 8 15 8 -5 10 14 12 113 1 23 4 45 9 49 13 13 7 32 -11 36 -14 4 -19 -1 -20
-26z"/>
<path d="M2080 4151 c0 -11 59 -20 65 -10 3 3 -5 9 -18 13 -31 8 -47 7 -47 -3z"/>
<path d="M3020 4130 c0 -5 5 -10 10 -10 6 0 10 5 10 10 0 6 -4 10 -10 10 -5 0
-10 -4 -10 -10z"/>
<path d="M2186 4121 c-4 -7 -5 -15 -2 -18 9 -9 19 4 14 18 -4 11 -6 11 -12 0z"/>
<path d="M2915 4120 c-3 -5 1 -10 9 -10 9 0 16 5 16 10 0 6 -4 10 -9 10 -6 0
-13 -4 -16 -10z"/>
<path d="M2956 4103 c-6 -14 -5 -15 5 -6 7 7 10 15 7 18 -3 3 -9 -2 -12 -12z"/>
<path d="M2083 4088 c-11 -24 4 -98 26 -134 10 -16 11 -10 6 31 -4 28 -13 57
-21 66 -13 15 -13 19 1 32 17 17 19 27 7 27 -5 0 -13 -10 -19 -22z"/>
<path d="M2224 4096 c-6 -7 -15 -23 -18 -37 -7 -23 -6 -22 11 4 10 15 21 27
25 27 5 0 8 5 8 10 0 14 -13 12 -26 -4z"/>
<path d="M3220 4100 c0 -6 8 -10 18 -10 10 0 23 -5 29 -11 7 -7 12 -6 17 6 4
11 2 15 -6 12 -7 -2 -23 0 -35 4 -14 5 -23 5 -23 -1z"/>
<path d="M1363 4073 c-7 -3 -13 -11 -13 -20 0 -12 2 -12 16 2 18 17 16 25 -3
18z"/>
<path d="M2132 4068 c6 -18 25 -21 31 -5 3 8 -3 13 -15 14 -10 1 -18 -3 -16
-9z"/>
<path d="M4610 4066 c0 -9 -6 -16 -13 -16 -8 0 -14 -6 -14 -14 0 -18 19 -11
35 14 7 12 8 21 2 25 -6 3 -10 -1 -10 -9z"/>
<path d="M3305 4060 c3 -5 8 -10 11 -10 2 0 4 5 4 10 0 6 -5 10 -11 10 -5 0
-7 -4 -4 -10z"/>
<path d="M3495 4060 c-3 -5 -1 -10 4 -10 6 0 11 5 11 10 0 6 -2 10 -4 10 -3 0
-8 -4 -11 -10z"/>
<path d="M3190 4043 c0 -4 5 -15 10 -23 8 -13 10 -13 10 2 0 9 -4 20 -10 23
-5 3 -10 3 -10 -2z"/>
<path d="M2223 4033 c-7 -2 -13 -9 -13 -15 0 -6 6 -8 14 -5 10 4 13 0 11 -14
-2 -11 0 -17 6 -14 11 7 12 55 2 54 -5 0 -14 -3 -20 -6z"/>
<path d="M2276 4018 c-3 -13 -1 -27 4 -32 7 -7 10 -4 10 6 0 9 3 23 6 32 3 9
2 16 -4 16 -5 0 -12 -10 -16 -22z"/>
<path d="M3147 4033 c-4 -3 -7 -13 -7 -22 1 -13 3 -13 11 2 11 19 8 33 -4 20z"/>
<path d="M4619 4023 c-13 -16 -12 -17 4 -4 9 7 17 15 17 17 0 8 -8 3 -21 -13z"/>
<path d="M3046 4013 c-9 -10 -7 -25 3 -19 5 4 12 0 14 -6 4 -8 6 -7 6 4 1 19
-13 31 -23 21z"/>
<path d="M3527 4009 c7 -7 15 -10 18 -7 3 3 -2 9 -12 12 -14 6 -15 5 -6 -5z"/>
<path d="M1350 3999 c0 -5 5 -7 10 -4 6 3 10 8 10 11 0 2 -4 4 -10 4 -5 0 -10
-5 -10 -11z"/>
<path d="M2141 4000 c0 -8 4 -24 9 -35 l9 -20 0 20 c0 11 -4 27 -9 35 -9 13
-10 13 -9 0z"/>
<path d="M4006 4002 c-2 -4 4 -8 14 -8 10 0 16 4 14 8 -3 4 -9 8 -14 8 -5 0
-11 -4 -14 -8z"/>
<path d="M2188 3968 c-7 -18 5 -78 13 -63 3 6 3 26 -1 45 -4 25 -7 30 -12 18z"/>
<path d="M3375 3960 c-3 -5 -1 -10 4 -10 6 0 11 5 11 10 0 6 -2 10 -4 10 -3 0
-8 -4 -11 -10z"/>
<path d="M3410 3960 c0 -5 5 -10 10 -10 6 0 10 5 10 10 0 6 -4 10 -10 10 -5 0
-10 -4 -10 -10z"/>
<path d="M3290 3950 c-9 -6 -10 -10 -3 -10 6 0 15 5 18 10 8 12 4 12 -15 0z"/>
<path d="M3468 3953 c7 -3 16 -2 19 1 4 3 -2 6 -13 5 -11 0 -14 -3 -6 -6z"/>
<path d="M4590 3942 c0 -13 4 -21 9 -18 5 4 12 0 14 -6 3 -7 6 -8 6 -2 1 5 -6
19 -14 30 -14 18 -14 18 -15 -4z"/>
<path d="M2260 3940 c0 -5 5 -10 11 -10 5 0 7 5 4 10 -3 6 -8 10 -11 10 -2 0
-4 -4 -4 -10z"/>
<path d="M3037 3944 c-13 -13 -7 -24 18 -36 14 -6 25 -17 25 -25 0 -7 5 -13
10 -13 17 0 11 18 -13 37 -13 10 -26 24 -28 31 -2 7 -8 10 -12 6z"/>
<path d="M2128 3902 c-10 -11 -14 -23 -9 -31 6 -10 13 -5 24 18 17 34 11 39
-15 13z"/>
<path d="M3150 3910 c0 -5 5 -10 10 -10 6 0 10 5 10 10 0 6 -4 10 -10 10 -5 0
-10 -4 -10 -10z"/>
<path d="M2258 3903 c7 -3 16 -2 19 1 4 3 -2 6 -13 5 -11 0 -14 -3 -6 -6z"/>
<path d="M3774 3898 c-3 -4 4 -8 15 -8 12 0 21 4 21 8 0 5 -7 9 -15 9 -9 0
-18 -4 -21 -9z"/>
<path d="M3308 3893 c6 -2 18 -2 25 0 6 3 1 5 -13 5 -14 0 -19 -2 -12 -5z"/>
<path d="M4105 3890 c-3 -5 -2 -10 4 -10 5 0 13 5 16 10 3 6 2 10 -4 10 -5 0
-13 -4 -16 -10z"/>
<path d="M4530 3890 c-23 -7 -23 -8 -3 -9 12 -1 25 4 28 9 3 6 5 10 3 9 -2 -1
-14 -5 -28 -9z"/>
<path d="M4570 3890 c0 -5 5 -10 10 -10 6 0 10 5 10 10 0 6 -4 10 -10 10 -5 0
-10 -4 -10 -10z"/>
<path d="M2240 3860 c12 -22 25 -26 35 -11 3 6 -3 15 -14 20 -28 16 -33 14
-21 -9z"/>
<path d="M3106 3862 c-3 -5 9 -23 27 -39 17 -17 60 -59 93 -94 73 -76 111
-110 99 -89 -16 30 -174 190 -186 190 -5 0 -9 6 -9 14 0 18 -17 30 -24 18z"/>
<path d="M2213 3845 c-3 -9 -3 -18 -1 -21 3 -3 8 4 11 16 6 23 -1 27 -10 5z"/>
<path d="M3606 3845 c-3 -8 -1 -15 4 -15 6 0 10 7 10 15 0 8 -2 15 -4 15 -2 0
-6 -7 -10 -15z"/>
<path d="M3656 3845 c4 -8 8 -15 10 -15 2 0 4 7 4 15 0 8 -4 15 -10 15 -5 0
-7 -7 -4 -15z"/>
<path d="M4008 3833 c-21 -14 -38 -30 -38 -35 0 -5 20 5 45 22 25 17 45 33 45
35 0 10 -16 3 -52 -22z"/>
<path d="M2076 3833 c-6 -14 -5 -15 5 -6 7 7 10 15 7 18 -3 3 -9 -2 -12 -12z"/>
<path d="M2160 3835 c0 -8 7 -15 16 -15 14 0 14 3 4 15 -7 8 -14 15 -16 15 -2
0 -4 -7 -4 -15z"/>
<path d="M3935 3839 c-5 -5 -19 -16 -30 -24 -11 -7 -16 -17 -12 -22 5 -4 14 0
21 10 7 9 21 17 30 17 9 0 16 7 16 15 0 17 -10 19 -25 4z"/>
<path d="M4500 3840 c0 -5 -16 -10 -35 -10 -19 0 -35 -4 -35 -9 0 -12 51 -7
78 8 26 14 28 21 7 21 -8 0 -15 -4 -15 -10z"/>
<path d="M3520 3836 c0 -2 7 -7 16 -10 8 -3 12 -2 9 4 -6 10 -25 14 -25 6z"/>
<path d="M3614 3815 c-16 -12 -16 -14 -3 -15 9 0 22 7 29 15 16 19 0 19 -26 0z"/>
<path d="M4590 3807 c0 -13 -6 -37 -14 -53 -24 -49 -30 -77 -15 -72 7 2 20 33
30 69 22 76 22 79 9 79 -5 0 -10 -11 -10 -23z"/>
<path d="M1400 3809 c0 -5 5 -7 10 -4 6 3 10 8 10 11 0 2 -4 4 -10 4 -5 0 -10
-5 -10 -11z"/>
<path d="M2200 3800 c0 -5 5 -10 10 -10 6 0 10 5 10 10 0 6 -4 10 -10 10 -5 0
-10 -4 -10 -10z"/>
<path d="M2240 3801 c0 -4 11 -6 25 -3 14 2 25 6 25 8 0 2 -11 4 -25 4 -14 0
-25 -4 -25 -9z"/>
<path d="M4520 3799 c0 -5 5 -7 10 -4 6 3 10 8 10 11 0 2 -4 4 -10 4 -5 0 -10
-5 -10 -11z"/>
<path d="M3860 3785 c-7 -8 -17 -15 -22 -15 -5 0 -21 -11 -36 -25 -15 -14 -22
-25 -16 -25 5 0 20 9 31 19 12 11 24 17 27 14 3 -4 6 -1 6 5 0 7 7 12 15 12 8
0 15 7 15 15 0 8 -2 15 -4 15 -2 0 -9 -7 -16 -15z"/>
<path d="M2127 3783 c-7 -7 39 -33 57 -32 6 0 1 4 -11 9 -13 5 -23 14 -23 20
0 11 -13 13 -23 3z"/>
<path d="M2160 3780 c0 -5 5 -10 10 -10 6 0 10 5 10 10 0 6 -4 10 -10 10 -5 0
-10 -4 -10 -10z"/>
<path d="M3533 3766 c0 -11 5 -13 19 -5 10 5 18 12 18 14 0 3 -8 5 -18 5 -10
0 -19 -7 -19 -14z"/>
<path d="M3945 3770 c-3 -5 -1 -10 4 -10 6 0 11 5 11 10 0 6 -2 10 -4 10 -3 0
-8 -4 -11 -10z"/>
<path d="M3506 3753 c-6 -14 -5 -15 5 -6 7 7 10 15 7 18 -3 3 -9 -2 -12 -12z"/>
<path d="M2265 3750 c-3 -5 -1 -10 4 -10 6 0 11 5 11 10 0 6 -2 10 -4 10 -3 0
-8 -4 -11 -10z"/>
<path d="M3420 3720 c-20 -12 -10 -19 14 -10 11 3 15 9 10 13 -6 3 -16 2 -24
-3z"/>
<path d="M3638 3723 c7 -3 16 -2 19 1 4 3 -2 6 -13 5 -11 0 -14 -3 -6 -6z"/>
<path d="M1330 3688 c0 -25 3 -29 10 -18 13 20 13 50 0 50 -5 0 -10 -15 -10
-32z"/>
<path d="M2280 3709 c0 -5 5 -7 10 -4 6 3 10 8 10 11 0 2 -4 4 -10 4 -5 0 -10
-5 -10 -11z"/>
<path d="M3746 3703 c-6 -14 -5 -15 5 -6 7 7 10 15 7 18 -3 3 -9 -2 -12 -12z"/>
<path d="M4505 3700 c3 -5 8 -10 11 -10 2 0 4 5 4 10 0 6 -5 10 -11 10 -5 0
-7 -4 -4 -10z"/>
<path d="M3370 3691 c0 -5 7 -11 14 -14 10 -4 13 -1 9 9 -6 15 -23 19 -23 5z"/>
<path d="M4215 3689 c-4 -6 -5 -12 -2 -15 2 -3 7 2 10 11 7 17 1 20 -8 4z"/>
<path d="M3320 3675 c0 -2 8 -9 18 -14 14 -7 19 -6 19 3 0 6 -9 13 -19 13 -10
1 -18 0 -18 -2z"/>
<path d="M3798 3673 c7 -3 16 -2 19 1 4 3 -2 6 -13 5 -11 0 -14 -3 -6 -6z"/>
<path d="M4612 3645 c-17 -37 -14 -45 4 -12 9 16 14 31 11 33 -2 2 -9 -7 -15
-21z"/>
<path d="M1357 3645 c-4 -8 -2 -17 3 -20 6 -4 10 3 10 14 0 25 -6 27 -13 6z"/>
<path d="M3660 3650 c0 -5 5 -10 11 -10 5 0 7 5 4 10 -3 6 -8 10 -11 10 -2 0
-4 -4 -4 -10z"/>
<path d="M4135 3650 c-3 -5 -1 -10 4 -10 6 0 11 5 11 10 0 6 -2 10 -4 10 -3 0
-8 -4 -11 -10z"/>
<path d="M3630 3636 c0 -2 7 -7 16 -10 8 -3 12 -2 9 4 -6 10 -25 14 -25 6z"/>
<path d="M2260 3610 c0 -19 3 -21 12 -12 9 9 9 15 0 24 -9 9 -12 7 -12 -12z"/>
<path d="M3601 3611 c-10 -7 -7 -9 12 -8 14 1 23 5 20 10 -6 9 -15 9 -32 -2z"/>
<path d="M1351 3602 c-1 -7 5 -15 13 -18 8 -3 17 -22 21 -42 4 -23 9 -31 15
-23 10 16 -10 71 -26 71 -7 0 -15 6 -17 13 -4 9 -6 9 -6 -1z"/>
<path d="M3340 3589 c-11 -19 -10 -20 11 -9 17 10 23 9 30 -1 7 -11 9 -11 9 2
0 9 -7 20 -16 23 -22 8 -22 8 -34 -15z"/>
<path d="M4520 3595 c0 -8 2 -15 4 -15 2 0 6 7 10 15 3 8 1 15 -4 15 -6 0 -10
-7 -10 -15z"/>
<path d="M3555 3570 c27 -12 43 -12 25 0 -8 5 -22 9 -30 9 -10 0 -8 -3 5 -9z"/>
<path d="M3750 3521 c0 -6 4 -13 10 -16 6 -3 7 1 4 9 -7 18 -14 21 -14 7z"/>
<path d="M4341 3514 c0 -11 3 -14 6 -6 3 7 2 16 -1 19 -3 4 -6 -2 -5 -13z"/>
<path d="M4541 3475 c-21 -55 -107 -215 -122 -225 -4 -3 -15 -18 -23 -34 -26
-51 -152 -192 -240 -268 -427 -374 -971 -487 -1521 -316 -98 30 -207 75 -332
136 -34 16 -64 27 -67 24 -13 -12 -5 -22 17 -22 18 0 19 -2 7 -11 -12 -8 -11
-9 6 -4 13 3 26 -1 34 -10 7 -8 16 -12 21 -9 5 3 9 1 9 -3 0 -5 16 -15 35 -22
19 -7 33 -17 29 -22 -3 -6 4 -7 19 -4 14 4 28 2 31 -4 4 -6 42 -22 86 -35 44
-14 95 -32 114 -40 19 -8 50 -17 68 -20 18 -3 62 -12 98 -20 98 -22 214 -34
330 -35 63 0 195 7 195 10 0 1 9 3 20 4 11 1 30 5 43 9 12 4 22 3 22 -2 0 -5
-24 -16 -52 -25 -49 -15 -50 -16 -13 -11 22 3 63 11 90 19 28 7 71 19 98 26
26 6 47 16 47 21 0 5 4 7 9 4 5 -3 21 1 37 9 16 7 41 18 57 24 15 6 27 14 27
18 0 5 12 9 27 10 15 0 29 6 31 12 2 6 10 11 17 11 8 0 21 7 29 16 9 8 16 13
16 10 0 -4 18 5 40 19 23 14 52 30 66 35 14 6 22 14 19 20 -3 5 1 10 11 10 37
0 243 179 340 296 101 122 222 323 244 404 17 63 5 60 -19 -5z m-894 -861 c-3
-3 -12 -4 -19 -1 -8 3 -5 6 6 6 11 1 17 -2 13 -5z m-147 -42 c0 -5 -16 -13
-35 -19 -19 -6 -35 -7 -35 -2 0 4 15 13 33 18 17 5 33 10 35 10 1 1 2 -3 2 -7z"/>
<path d="M3428 3513 c-4 -9 -32 -25 -293 -159 -471 -242 -875 -371 -1278 -409
-56 -6 -68 -4 -73 9 -7 19 -25 22 -22 4 5 -24 29 -40 52 -36 17 4 23 1 19 -8
-3 -8 2 -17 11 -20 9 -3 16 -14 17 -23 0 -12 2 -13 6 -2 3 8 -2 20 -12 27 -17
13 -12 40 6 29 10 -7 131 9 276 36 55 10 109 16 120 13 15 -5 15 -4 3 5 -12 8
-7 11 22 11 20 0 40 5 43 11 4 6 14 8 22 4 9 -3 25 3 36 12 11 10 17 12 13 6
-7 -13 -9 -14 69 21 22 10 54 19 70 20 17 0 36 7 44 14 8 8 27 12 42 10 16 -3
25 0 23 6 -5 14 144 78 159 69 7 -3 8 -2 4 2 -8 9 115 64 146 64 10 1 16 5 13
9 -8 13 141 82 161 76 12 -4 14 -3 6 3 -8 6 7 18 48 37 32 15 59 32 59 38 0 5
9 6 21 3 14 -5 19 -3 15 4 -4 6 20 23 60 41 37 18 72 36 78 41 6 5 20 16 31
24 17 12 17 14 3 15 -9 0 -18 -3 -20 -7z"/>
<path d="M4238 3475 c-3 -14 -1 -25 3 -25 5 0 9 11 9 25 0 14 -2 25 -4 25 -2
0 -6 -11 -8 -25z"/>
<path d="M1494 3457 c-8 -9 -6 -23 10 -54 11 -23 24 -43 29 -43 4 0 -2 18 -13
39 -11 22 -17 47 -14 55 7 19 3 20 -12 3z"/>
<path d="M1437 3430 c6 -23 33 -49 33 -31 0 6 -4 11 -10 11 -5 0 -10 6 -10 14
0 8 -4 17 -9 20 -5 4 -7 -3 -4 -14z"/>
<path d="M4230 3430 c0 -8 5 -22 10 -30 9 -13 10 -13 10 0 0 8 -5 22 -10 30
-9 13 -10 13 -10 0z"/>
<path d="M3405 3420 c-3 -5 -1 -10 4 -10 6 0 11 5 11 10 0 6 -2 10 -4 10 -3 0
-8 -4 -11 -10z"/>
<path d="M4180 3419 c0 -5 5 -7 10 -4 6 3 10 8 10 11 0 2 -4 4 -10 4 -5 0 -10
-5 -10 -11z"/>
<path d="M4541 3378 c-13 -26 -22 -51 -19 -54 4 -3 9 5 13 18 4 13 14 31 22
40 8 9 13 23 11 31 -1 7 -14 -8 -27 -35z"/>
<path d="M4127 3383 c-10 -9 -9 -23 1 -23 5 0 9 7 9 15 0 17 -1 18 -10 8z"/>
<path d="M1470 3370 c0 -5 5 -10 10 -10 6 0 10 5 10 10 0 6 -4 10 -10 10 -5 0
-10 -4 -10 -10z"/>
<path d="M3280 3361 c0 -10 19 -25 25 -20 1 2 -3 10 -11 17 -8 7 -14 8 -14 3z"/>
<path d="M4177 3356 c-12 -9 -14 -16 -8 -21 6 -3 14 1 17 9 3 9 10 13 15 10 5
-3 9 0 9 5 0 15 -11 13 -33 -3z"/>
<path d="M1490 3340 c0 -5 5 -10 11 -10 5 0 7 5 4 10 -3 6 -8 10 -11 10 -2 0
-4 -4 -4 -10z"/>
<path d="M3326 3334 c-17 -12 -17 -14 -4 -14 9 0 20 5 23 11 11 17 2 18 -19 3z"/>
<path d="M4088 3343 c7 -3 16 -2 19 1 4 3 -2 6 -13 5 -11 0 -14 -3 -6 -6z"/>
<path d="M2320 3326 c0 -8 4 -17 9 -20 5 -4 7 3 4 14 -6 23 -13 26 -13 6z"/>
<path d="M3270 3322 c0 -12 19 -26 26 -19 2 2 -2 10 -11 17 -9 8 -15 8 -15 2z"/>
<path d="M1513 3301 c0 -11 5 -18 9 -15 4 3 5 11 1 19 -7 21 -12 19 -10 -4z"/>
<path d="M1640 3311 c0 -6 4 -13 10 -16 6 -3 7 1 4 9 -7 18 -14 21 -14 7z"/>
<path d="M4090 3300 c0 -5 5 -10 10 -10 6 0 10 5 10 10 0 6 -4 10 -10 10 -5 0
-10 -4 -10 -10z"/>
<path d="M3125 3290 c-3 -5 -1 -10 4 -10 6 0 11 5 11 10 0 6 -2 10 -4 10 -3 0
-8 -4 -11 -10z"/>
<path d="M3250 3284 c0 -8 5 -12 10 -9 6 4 8 11 5 16 -9 14 -15 11 -15 -7z"/>
<path d="M4136 3287 c3 -10 9 -15 12 -12 3 3 0 11 -7 18 -10 9 -11 8 -5 -6z"/>
<path d="M4500 3285 c0 -8 2 -15 4 -15 2 0 6 7 10 15 3 8 1 15 -4 15 -6 0 -10
-7 -10 -15z"/>
<path d="M1594 3277 c3 -10 6 -25 6 -33 0 -9 5 -12 10 -9 6 3 10 0 10 -7 1
-13 50 -79 50 -66 0 4 -19 36 -41 70 -23 35 -39 55 -35 45z"/>
<path d="M1530 3260 c0 -5 5 -10 11 -10 5 0 7 5 4 10 -3 6 -8 10 -11 10 -2 0
-4 -4 -4 -10z"/>
<path d="M3090 3260 c0 -5 5 -10 10 -10 6 0 10 5 10 10 0 6 -4 10 -10 10 -5 0
-10 -4 -10 -10z"/>
<path d="M3204 3259 c-3 -6 -17 -8 -29 -5 -17 4 -23 2 -21 -9 2 -17 7 -17 49
-3 15 6 27 14 27 19 0 13 -17 11 -26 -2z"/>
<path d="M4085 3260 c-3 -5 1 -10 9 -10 9 0 16 5 16 10 0 6 -4 10 -9 10 -6 0
-13 -4 -16 -10z"/>
<path d="M3037 3253 c-10 -10 -8 -23 4 -23 5 0 8 4 5 9 -4 5 0 12 6 14 7 3 8
6 2 6 -6 1 -14 -2 -17 -6z"/>
<path d="M4480 3251 c0 -5 -7 -16 -15 -25 -9 -9 -11 -17 -5 -21 5 -3 10 -1 10
4 0 6 9 20 20 31 16 16 17 20 5 20 -8 0 -15 -4 -15 -9z"/>
<path d="M2215 3243 c-16 -3 -34 -8 -39 -13 -5 -5 -17 -5 -28 1 -12 6 -18 6
-18 -1 0 -5 5 -10 12 -10 29 0 -3 -10 -50 -15 -29 -3 -63 -10 -75 -15 -41 -16
11 -11 108 11 50 11 102 22 117 25 15 4 25 10 22 15 -3 5 -8 8 -12 8 -4 -1
-20 -4 -37 -6z"/>
<path d="M1550 3236 c0 -2 8 -10 18 -17 15 -13 16 -12 3 4 -13 16 -21 21 -21
13z"/>
<path d="M3000 3210 c-8 -5 -12 -12 -9 -15 4 -3 12 1 19 10 14 17 11 19 -10 5z"/>
<path d="M3098 3211 c-20 -4 -25 -10 -19 -20 8 -12 15 -11 43 7 33 22 27 25
-24 13z"/>
<path d="M3895 3209 c-4 -6 -5 -12 -2 -15 2 -3 7 2 10 11 7 17 1 20 -8 4z"/>
<path d="M1590 3194 c0 -5 14 -25 30 -44 l30 -35 -25 40 c-31 47 -35 51 -35
39z"/>
<path d="M2870 3180 c-12 -8 -11 -10 8 -10 12 0 22 5 22 10 0 13 -11 13 -30 0z"/>
<path d="M3022 3178 c3 -7 13 -15 24 -17 16 -3 17 -1 5 13 -16 19 -34 21 -29
4z"/>
<path d="M4433 3183 c-7 -2 -13 -11 -13 -19 0 -8 -5 -14 -12 -14 -6 0 -9 -3
-6 -6 3 -3 -7 -19 -24 -36 -16 -16 -26 -33 -23 -37 8 -7 51 42 78 88 10 17 17
31 15 30 -2 0 -9 -3 -15 -6z"/>
<path d="M2968 3158 c17 -17 15 -28 -7 -28 -11 0 -23 -4 -26 -10 -3 -5 -15
-10 -26 -10 -10 0 -19 -4 -19 -9 0 -14 -44 -21 -52 -8 -5 8 -8 4 -8 -9 0 -12
-7 -24 -15 -28 -8 -3 -15 -1 -15 4 0 6 -7 10 -16 10 -10 0 -14 -6 -11 -14 4
-10 -11 -21 -51 -36 -31 -12 -81 -33 -109 -47 -34 -16 -61 -22 -74 -18 -13 4
-19 3 -16 -2 6 -10 -47 -37 -95 -48 -16 -4 -28 -12 -28 -18 0 -6 -3 -8 -6 -5
-3 3 -21 2 -41 -4 -27 -7 -38 -7 -44 4 -6 9 -9 6 -9 -11 0 -18 4 -22 18 -16 9
4 33 11 52 15 37 7 193 63 222 80 10 6 22 10 27 10 11 0 93 37 258 116 62 30
117 54 123 54 16 0 12 27 -6 34 -27 10 -39 7 -26 -6z"/>
<path d="M1681 3144 c0 -11 3 -14 6 -6 3 7 2 16 -1 19 -3 4 -6 -2 -5 -13z"/>
<path d="M4170 3100 c0 -5 5 -10 10 -10 6 0 10 5 10 10 0 6 -4 10 -10 10 -5 0
-10 -4 -10 -10z"/>
<path d="M1770 3096 c0 -2 9 -6 20 -9 11 -3 18 -1 14 4 -5 9 -34 13 -34 5z"/>
<path d="M1740 3086 c0 -2 7 -7 16 -10 8 -3 12 -2 9 4 -6 10 -25 14 -25 6z"/>
<path d="M4325 3050 c-3 -5 1 -10 9 -10 9 0 16 5 16 10 0 6 -4 10 -9 10 -6 0
-13 -4 -16 -10z"/>
<path d="M2530 3039 c0 -5 5 -7 10 -4 6 3 10 8 10 11 0 2 -4 4 -10 4 -5 0 -10
-5 -10 -11z"/>
<path d="M2581 3016 c-7 -8 -8 -17 -3 -20 6 -3 13 1 16 10 9 23 2 28 -13 10z"/>
<path d="M4121 3004 c-14 -13 -23 -26 -20 -29 3 -3 16 6 29 20 30 32 23 40 -9
9z"/>
<path d="M4296 3004 c-18 -17 -20 -24 -8 -24 4 0 13 9 20 20 15 24 9 26 -12 4z"/>
<path d="M4217 2920 c-27 -28 -52 -50 -56 -50 -3 0 -18 -11 -32 -23 -13 -13
-44 -37 -67 -52 -23 -15 -41 -30 -38 -32 6 -6 60 21 69 34 5 8 14 10 20 7 7
-4 9 -4 6 0 -7 7 36 56 49 56 8 0 112 98 112 105 0 14 -20 0 -63 -45z"/>
<path d="M1910 2900 c0 -6 7 -13 15 -17 24 -9 27 1 5 15 -13 8 -20 8 -20 2z"/>
<path d="M1880 2860 c0 -5 5 -10 11 -10 5 0 7 5 4 10 -3 6 -8 10 -11 10 -2 0
-4 -4 -4 -10z"/>
<path d="M1997 2843 c-4 -3 -7 -11 -7 -16 0 -6 3 -8 6 -5 3 3 17 -5 31 -18 14
-13 30 -21 36 -17 6 4 2 10 -10 14 -12 4 -27 17 -35 28 -8 12 -18 18 -21 14z"/>
<path d="M1920 2822 c0 -12 19 -26 26 -19 2 2 -2 10 -11 17 -9 8 -15 8 -15 2z"/>
<path d="M2380 2815 c-14 -8 -20 -14 -15 -14 6 0 21 6 35 14 14 8 21 14 15 14
-5 0 -21 -6 -35 -14z"/>
<path d="M1970 2786 c0 -2 7 -7 16 -10 8 -3 12 -2 9 4 -6 10 -25 14 -25 6z"/>
<path d="M2078 2773 c7 -3 16 -2 19 1 4 3 -2 6 -13 5 -11 0 -14 -3 -6 -6z"/>
<path d="M2035 2740 c-3 -5 1 -10 10 -10 9 0 13 5 10 10 -3 6 -8 10 -10 10 -2
0 -7 -4 -10 -10z"/>
<path d="M2140 2730 c29 -22 60 -32 60 -19 0 5 -8 9 -19 9 -10 0 -24 7 -31 15
-7 8 -18 15 -24 15 -6 0 0 -9 14 -20z"/>
<path d="M3965 2725 c-23 -19 -26 -24 -12 -25 9 0 17 5 17 11 0 6 6 9 14 6 8
-3 20 2 28 11 8 9 8 13 1 9 -6 -4 -13 -3 -15 3 -1 5 -16 -1 -33 -15z"/>
<path d="M2268 2733 c7 -3 16 -2 19 1 4 3 -2 6 -13 5 -11 0 -14 -3 -6 -6z"/>
<path d="M2090 2713 c0 -8 64 -53 75 -53 3 0 5 5 5 10 0 6 -5 10 -11 10 -6 0
-24 9 -40 21 -16 11 -29 17 -29 12z"/>
<path d="M2225 2686 c11 -9 25 -20 32 -26 7 -5 17 -10 23 -10 17 0 -11 23 -45
38 -27 11 -28 11 -10 -2z"/>
<path d="M3902 2688 c-19 -19 -14 -29 8 -16 20 13 27 28 12 28 -4 0 -13 -5
-20 -12z"/>
<path d="M3835 2652 c-17 -8 -25 -17 -19 -19 14 -5 68 23 57 30 -4 3 -22 -2
-38 -11z"/>
<path d="M2200 2640 c11 -11 26 -20 33 -20 6 1 1 10 -12 20 -30 26 -47 26 -21
0z"/>
<path d="M2260 2611 c0 -9 8 -12 64 -31 40 -12 20 5 -26 25 -21 8 -38 11 -38
6z"/>
<path d="M3722 2595 c-24 -14 -47 -24 -50 -23 -19 2 -33 -3 -28 -11 8 -12 37
-4 105 30 31 15 47 28 36 28 -11 0 -40 -11 -63 -24z"/>
<path d="M2405 2550 c-3 -5 1 -10 10 -10 9 0 13 5 10 10 -3 6 -8 10 -10 10 -2
0 -7 -4 -10 -10z"/>
<path d="M2590 2540 c0 -5 5 -10 11 -10 5 0 7 5 4 10 -3 6 -8 10 -11 10 -2 0
-4 -4 -4 -10z"/>
<path d="M3598 2545 c-3 -3 -14 -7 -24 -9 -31 -7 -77 -26 -72 -31 4 -4 45 7
93 26 11 4 27 10 35 12 10 4 8 6 -6 6 -11 1 -23 -1 -26 -4z"/>
<path d="M2490 2515 c54 -24 122 -35 90 -16 -8 6 -17 8 -21 6 -3 -3 -25 4 -47
15 -23 11 -49 20 -59 20 -10 -1 7 -12 37 -25z"/>
<path d="M2633 2523 c9 -2 23 -2 30 0 6 3 -1 5 -18 5 -16 0 -22 -2 -12 -5z"/>
<path d="M3270 2512 c-19 -2 -39 -8 -45 -14 -7 -7 4 -8 35 -3 66 11 73 23 10
17z"/>
<path d="M3450 2500 l-35 -7 32 -2 c17 0 35 4 38 9 3 6 5 9 3 9 -2 -1 -19 -5
-38 -9z"/>
<path d="M3035 2490 c4 -6 11 -8 16 -5 14 9 11 15 -7 15 -8 0 -12 -5 -9 -10z"/>
<path d="M2637 2473 c3 -7 6 -13 8 -13 2 0 5 6 8 13 3 8 -1 14 -8 14 -7 0 -11
-6 -8 -14z"/>
<path d="M3395 2481 c-6 -5 -21 -11 -35 -14 l-25 -4 26 -2 c15 0 32 6 39 14
14 16 10 21 -5 6z"/>
<path d="M2705 2450 c-3 -5 -1 -10 4 -10 6 0 11 5 11 10 0 6 -2 10 -4 10 -3 0
-8 -4 -11 -10z"/>
<path d="M2798 2443 c12 -2 30 -2 40 0 9 3 -1 5 -23 4 -22 0 -30 -2 -17 -4z"/>
<path d="M3090 2440 l-35 -7 43 -2 c27 0 41 3 37 9 -3 6 -7 9 -8 9 -1 -1 -18
-5 -37 -9z"/>
<path d="M3160 2440 c-9 -6 -10 -10 -3 -10 6 0 15 5 18 10 8 12 4 12 -15 0z"/>
<path d="M2880 2436 c0 -2 15 -6 34 -8 19 -2 32 0 30 4 -5 8 -64 12 -64 4z"/>
<path d="M2965 2431 c3 -6 22 -11 42 -11 44 0 41 5 -10 14 -27 5 -37 4 -32 -3z"/>
<path d="M3380 2243 c-25 -12 -53 -22 -62 -23 -10 0 -18 -4 -18 -9 0 -5 -8
-12 -19 -16 -10 -3 -43 -29 -72 -58 -76 -74 -152 -232 -120 -251 6 -4 11 -15
10 -24 0 -11 -2 -12 -6 -4 -2 6 -9 10 -14 6 -5 -3 -6 -10 -3 -16 4 -6 8 -26
10 -45 2 -24 0 -32 -9 -27 -9 5 -8 3 1 -7 6 -7 12 -21 12 -31 0 -21 29 -82 36
-75 2 2 -2 23 -11 46 -19 55 -12 192 14 260 40 106 124 190 241 242 49 21 70
24 180 24 120 0 128 -1 193 -32 80 -38 168 -118 198 -181 13 -25 30 -82 39
-126 14 -67 15 -93 6 -146 -6 -36 -14 -70 -18 -76 -14 -21 -28 -65 -19 -60 13
8 52 86 47 94 -2 4 2 37 9 73 6 37 9 73 4 81 -4 8 -9 35 -10 61 -2 26 -7 47
-12 47 -5 0 -7 9 -4 20 3 11 2 20 -3 20 -4 0 -13 15 -21 33 -15 40 -132 157
-156 157 -15 0 -16 2 -3 10 13 8 13 10 -2 10 -9 0 -29 5 -45 12 -15 6 -31 11
-35 10 -5 -1 -8 2 -8 7 0 13 -11 14 -160 15 -110 1 -130 -2 -170 -21z"/>
<path d="M325 2250 c-56 -5 -58 -6 -27 -14 18 -4 73 -9 122 -11 88 -3 91 -4
117 -37 54 -64 186 -214 273 -308 47 -52 113 -125 146 -161 l59 -66 3 254 c1
153 -2 261 -8 272 -11 21 -52 32 -72 20 -10 -7 -10 -9 2 -9 8 0 24 -7 35 -16
19 -14 20 -27 20 -234 0 -121 -1 -220 -3 -220 -13 0 -43 41 -37 51 5 7 4 10
-2 6 -12 -8 -56 36 -46 46 3 4 -1 7 -11 7 -9 0 -14 5 -11 10 3 6 1 10 -5 10
-6 0 -8 4 -5 10 3 6 -1 7 -10 4 -11 -5 -14 -2 -9 10 5 13 2 15 -12 9 -17 -6
-17 -5 -5 11 8 9 10 16 5 15 -23 -4 -35 3 -46 26 -6 14 -16 25 -22 25 -13 0
-66 73 -66 89 0 6 -9 11 -19 11 -11 0 -23 9 -26 20 -3 11 -11 20 -16 20 -5 0
-9 7 -9 16 0 8 -4 13 -9 9 -5 -3 -12 -1 -16 5 -3 5 -1 10 5 10 7 0 6 5 -2 14
-7 8 -15 12 -17 10 -6 -5 -31 24 -31 36 0 6 -4 9 -9 5 -5 -3 -12 4 -16 15 -9
27 -103 40 -220 30z"/>
<path d="M974 2252 c-18 -2 -40 -13 -50 -25 -13 -14 -13 -17 -3 -9 11 8 54 11
137 9 115 -2 138 2 110 19 -12 7 -139 11 -194 6z"/>
<path d="M1375 2249 c-74 -15 25 -23 286 -23 l277 -1 -3 -44 c-5 -51 12 -141
26 -141 13 0 15 32 6 85 -4 17 -7 51 -8 78 l-3 47 -45 2 c-134 4 -511 2 -536
-3z"/>
<path d="M2163 2243 c0 -10 36 -13 158 -13 88 0 160 4 164 9 3 6 -3 10 -12 10
-220 8 -310 6 -310 -6z"/>
<path d="M2733 2253 c-40 -14 2 -22 117 -21 122 0 170 11 98 22 -41 6 -198 5
-215 -1z"/>
<path d="M4210 2253 c-63 -6 -80 -13 -80 -32 0 -12 12 -25 29 -32 17 -7 33
-22 36 -34 11 -35 15 -637 4 -657 -5 -10 -23 -25 -39 -33 -32 -17 -40 -35 -15
-35 8 0 15 -4 15 -10 0 -6 55 -10 145 -10 96 0 145 4 145 11 0 7 -37 9 -110 7
-83 -2 -110 0 -110 10 0 6 6 12 14 12 8 0 17 7 20 16 9 24 7 54 -4 54 -5 0
-10 -10 -10 -22 -1 -32 -34 -68 -62 -68 -23 0 -62 19 -43 21 35 3 52 11 67 30
16 19 18 47 18 248 0 124 3 269 6 321 8 122 -1 145 -56 154 -27 4 -40 11 -37
19 2 6 11 10 18 8 8 -2 100 -5 204 -7 240 -5 267 -8 324 -39 92 -51 133 -155
97 -249 -17 -43 -77 -106 -102 -106 -7 0 -16 -10 -19 -21 -6 -17 -9 -19 -16
-8 -7 12 -9 12 -9 0 0 -12 -3 -12 -12 -3 -16 16 -28 15 -28 -3 0 -8 4 -15 9
-15 4 0 36 -42 69 -94 104 -159 168 -224 235 -240 26 -6 27 -6 10 14 -10 11
-26 20 -36 20 -14 0 -17 5 -12 19 3 11 1 22 -4 26 -7 3 -8 0 -5 -9 4 -11 0
-16 -11 -16 -9 0 -19 8 -22 19 -2 10 -18 28 -34 40 -16 12 -29 26 -29 32 0 9
-8 21 -37 54 -7 7 -13 18 -13 24 0 5 -11 21 -25 35 -14 14 -25 32 -25 40 0 8
-5 16 -12 18 -15 5 32 54 48 50 7 -1 14 4 18 13 3 8 10 15 16 15 22 0 68 68
78 115 8 43 1 112 -16 145 -20 41 -88 110 -108 110 -8 0 -14 4 -14 8 0 23
-331 47 -470 35z"/>
<path d="M5392 2245 c-3 -31 -29 -85 -40 -85 -7 0 -11 -4 -8 -8 3 -5 -1 -26
-8 -47 -7 -21 -15 -34 -18 -29 -3 5 -3 3 -1 -4 2 -8 -3 -26 -11 -40 -23 -43
-46 -99 -46 -111 0 -6 -4 -11 -9 -11 -5 0 -12 -16 -15 -35 -4 -19 -11 -35 -16
-35 -6 0 -10 -6 -10 -14 0 -19 -39 -109 -50 -116 -4 -3 -10 -16 -11 -30 -2
-14 -16 -50 -31 -80 -16 -30 -28 -59 -28 -65 0 -12 -42 -55 -53 -55 -4 0 -16
-9 -27 -20 -23 -23 -11 -26 28 -6 43 22 69 57 100 131 16 39 43 99 59 135 17
36 73 165 124 287 87 206 96 223 119 223 21 0 28 -9 44 -48 10 -26 25 -60 32
-77 45 -108 88 -206 104 -240 10 -22 28 -64 40 -94 12 -30 32 -78 45 -105 12
-28 35 -79 50 -114 27 -61 57 -92 102 -106 18 -6 22 -4 17 8 -3 8 -14 18 -25
21 -11 4 -17 11 -14 16 3 5 0 6 -8 3 -16 -6 -43 30 -53 72 -4 16 -15 37 -25
47 -9 10 -23 39 -30 65 -7 26 -19 57 -27 69 -7 12 -13 24 -13 27 0 7 -25 69
-55 133 -13 28 -24 56 -24 61 0 5 -8 27 -17 48 -9 22 -15 46 -14 54 2 8 -1 12
-5 7 -7 -7 -29 42 -41 91 -3 12 -9 22 -14 22 -5 0 -9 6 -9 13 0 29 -34 54 -71
53 -20 0 -36 -5 -37 -11z"/>
<path d="M270 2222 c0 -13 45 -45 67 -48 8 -2 16 -4 18 -6 2 -2 6 -147 8 -323
4 -272 2 -323 -10 -342 -9 -13 -21 -23 -28 -23 -7 0 -16 -7 -19 -16 -3 -8 -10
-12 -16 -9 -14 9 -12 -7 5 -29 10 -14 22 -17 43 -13 15 3 45 2 65 -3 20 -4 39
-4 42 0 3 4 25 5 50 2 56 -6 61 13 6 22 -34 5 -41 11 -56 48 -10 24 -21 79
-25 123 l-7 80 -2 -83 c-1 -102 -19 -148 -63 -166 -18 -8 -36 -12 -40 -10 -15
10 -8 22 17 28 53 14 56 27 62 380 6 305 5 327 -12 346 -10 11 -29 20 -43 20
-14 0 -34 7 -44 17 -10 9 -18 11 -18 5z m175 -775 c7 -25 5 -27 -23 -27 -34 0
-52 17 -28 26 10 4 16 18 16 37 0 30 1 31 14 11 8 -11 18 -33 21 -47z"/>
<path d="M2150 2216 c0 -13 29 -37 51 -41 27 -5 62 -42 54 -55 -4 -6 -3 -9 2
-8 12 4 50 -37 55 -59 2 -10 10 -17 17 -15 6 1 11 -5 9 -14 -2 -9 3 -19 11
-22 8 -3 11 0 7 7 -4 6 -5 11 -2 11 3 0 12 -16 20 -35 8 -19 20 -35 26 -35 6
0 9 -4 6 -8 -3 -5 3 -21 14 -36 17 -28 18 -28 25 -7 5 17 -8 42 -56 109 -34
48 -70 94 -78 103 -9 9 -29 32 -46 53 -23 27 -37 36 -60 36 -17 0 -36 5 -43
12 -7 7 -12 9 -12 4z"/>
<path d="M2724 2188 c7 -19 13 -23 18 -15 5 7 8 8 8 1 0 -14 -77 -121 -112
-156 -14 -14 -24 -29 -20 -33 4 -4 0 -5 -8 -3 -8 2 -14 -3 -12 -10 1 -8 -2
-11 -9 -7 -6 4 -9 15 -6 25 3 13 0 17 -9 13 -8 -3 -14 1 -14 9 0 8 -18 34 -40
59 -22 24 -40 51 -40 60 0 9 -7 20 -17 23 -14 6 -14 8 3 21 15 12 16 16 6 23
-17 11 -62 3 -62 -11 0 -13 34 -64 111 -167 31 -41 59 -84 63 -94 4 -11 10
-16 15 -10 35 37 181 250 181 263 0 10 -13 20 -33 27 l-34 10 11 -28z"/>
<path d="M3500 2213 c-8 -3 -17 -9 -20 -13 -3 -4 -27 -18 -55 -32 -48 -23 -67
-53 -35 -53 8 0 14 6 13 13 -2 6 6 12 17 12 11 0 23 7 26 15 4 8 10 12 15 9 5
-3 6 -10 3 -16 -5 -7 -2 -8 5 -4 7 5 10 13 8 20 -3 6 3 12 13 12 10 0 16 -4
14 -8 -3 -4 2 -8 11 -8 9 0 14 4 11 8 -6 10 98 -10 134 -25 28 -12 70 -57 70
-75 0 -6 3 -8 6 -5 10 10 45 -35 39 -50 -2 -8 -1 -12 3 -9 32 19 48 -236 19
-293 -9 -17 -12 -31 -7 -31 5 0 2 -13 -6 -30 -9 -16 -19 -30 -23 -30 -4 0 -13
-11 -19 -25 -7 -14 -19 -28 -29 -32 -9 -4 -25 -15 -35 -25 -10 -10 -29 -18
-42 -18 -13 0 -26 -4 -28 -10 -6 -19 -139 -10 -165 12 -7 6 -13 7 -13 2 0 -5
-6 -2 -13 6 -7 9 -23 24 -37 33 -14 10 -25 21 -25 25 0 4 -10 18 -22 32 -13
13 -23 32 -23 41 0 10 -5 19 -10 21 -6 2 -12 14 -14 28 -1 14 -6 33 -10 42
-14 31 7 240 25 246 5 2 9 9 9 16 0 6 14 28 31 49 31 38 32 60 2 41 -45 -28
-93 -167 -93 -271 0 -159 64 -274 190 -338 42 -22 149 -25 204 -6 52 18 109
71 147 137 39 68 44 96 43 216 -1 150 -44 239 -150 311 -51 34 -63 37 -128 38
-39 1 -61 4 -48 6 12 2 22 9 22 14 0 10 -7 10 -30 2z"/>
<path d="M1360 2203 c0 -3 9 -12 20 -21 20 -16 21 -30 26 -332 4 -317 0 -370
-31 -370 -7 0 -15 -7 -19 -15 -8 -22 20 -19 44 5 11 11 20 28 21 38 0 9 2 49
4 87 9 183 7 576 -4 589 -11 13 -61 28 -61 19z"/>
<path d="M2915 2196 c-16 -8 -61 -53 -100 -101 -38 -48 -77 -95 -85 -105 -8
-10 -22 -28 -30 -41 -8 -12 -28 -34 -43 -50 l-28 -27 48 -65 c26 -36 77 -107
113 -158 104 -149 136 -179 220 -204 l25 -7 -22 21 c-12 11 -28 21 -35 21 -16
0 -73 52 -96 88 -16 26 -25 37 -71 91 -12 13 -21 28 -21 32 0 4 -6 14 -13 21
-25 25 -76 106 -71 111 3 3 -4 10 -15 17 -27 14 -27 41 -1 58 11 7 20 18 20
26 0 7 9 16 21 19 12 3 18 10 15 16 -4 5 3 15 14 21 11 6 20 17 20 25 0 8 5
15 11 15 5 0 8 4 4 9 -3 6 3 15 14 20 11 6 23 20 26 32 4 12 13 18 20 15 10
-3 12 0 8 11 -4 11 -3 14 6 9 6 -4 10 -3 9 2 -4 11 55 62 72 62 6 0 9 4 6 9
-4 5 3 7 14 4 11 -3 20 0 20 6 0 15 -38 13 -75 -3z"/>
<path d="M5427 2188 c-8 -27 1 -38 13 -18 8 12 10 10 10 -7 0 -12 4 -24 9 -27
5 -3 4 12 -1 34 -12 45 -23 51 -31 18z"/>
<path d="M427 2180 c-5 -21 7 -28 18 -10 16 26 94 -21 95 -57 0 -7 7 -13 15
-13 10 0 15 -10 15 -27 0 -18 3 -23 8 -15 6 9 14 5 30 -13 20 -23 21 -27 7
-41 -17 -17 -20 -34 -6 -34 5 0 11 10 14 22 6 22 7 22 39 -10 24 -25 29 -35
19 -41 -9 -6 -10 -11 -2 -15 6 -4 11 -2 11 5 0 8 4 8 15 -1 8 -7 15 -22 15
-34 0 -13 3 -17 8 -9 5 7 26 -11 62 -54 30 -37 69 -80 86 -97 17 -17 29 -37
26 -45 -3 -10 0 -12 13 -7 13 4 16 2 11 -9 -3 -8 -1 -15 5 -15 6 0 27 -15 46
-34 32 -29 40 -33 60 -23 22 10 23 15 23 113 0 58 -4 106 -10 109 -6 4 -10
-33 -10 -104 0 -64 -4 -111 -10 -111 -8 0 -35 27 -120 119 -14 15 -48 52 -75
82 -28 30 -79 88 -115 129 -36 41 -86 97 -111 125 -25 27 -63 69 -84 93 -43
48 -89 58 -98 22z"/>
<path d="M1037 2189 c8 -8 16 -8 30 0 16 9 14 10 -11 11 -22 0 -27 -3 -19 -11z"/>
<path d="M1097 2182 c-15 -16 -16 -54 -10 -391 l6 -374 -31 5 c-37 5 -44 -7
-7 -14 42 -9 56 19 58 116 1 47 -2 86 -6 86 -5 0 -5 5 -2 10 3 6 7 127 8 270
1 253 1 260 23 279 11 10 27 21 35 24 8 3 -2 6 -22 6 -23 1 -42 -6 -52 -17z"/>
<path d="M1440 2190 c0 -5 22 -10 49 -10 28 0 53 5 56 10 4 6 -15 10 -49 10
-31 0 -56 -4 -56 -10z"/>
<path d="M1861 2197 c2 -1 13 -10 24 -19 20 -16 21 -16 21 2 0 15 -7 20 -25
20 -13 0 -22 -1 -20 -3z"/>
<path d="M2293 2193 c9 -2 17 -8 17 -13 0 -4 9 -6 20 -3 34 9 22 23 -17 22
-21 -1 -30 -3 -20 -6z"/>
<path d="M2366 2185 c4 -8 7 -15 9 -15 1 0 8 7 15 15 10 13 9 15 -8 15 -15 0
-20 -5 -16 -15z"/>
<path d="M2816 2185 c17 -13 17 -14 2 -15 -10 0 -18 -7 -18 -17 0 -14 3 -14
22 3 52 44 52 44 12 44 -35 0 -37 -1 -18 -15z"/>
<path d="M3353 2174 c-70 -34 -149 -106 -178 -163 -23 -47 -45 -133 -30 -119
5 5 10 20 11 34 5 44 102 183 128 184 5 0 17 7 26 15 9 8 41 28 71 45 65 36
45 39 -28 4z"/>
<path d="M3675 2190 c7 -12 65 -40 82 -40 7 0 13 -7 13 -16 0 -8 5 -12 10 -9
6 3 17 0 25 -8 8 -9 18 -17 22 -19 12 -5 73 -85 73 -95 0 -5 9 -28 21 -52 11
-23 21 -62 22 -86 1 -25 6 -45 11 -45 14 0 0 89 -24 155 -30 81 -131 182 -208
207 -29 9 -50 12 -47 8z"/>
<path d="M4254 2189 c-3 -5 17 -9 45 -9 27 0 53 4 56 10 4 6 -14 9 -45 9 -28
-1 -53 -6 -56 -10z"/>
<path d="M1555 2025 l0 -155 103 0 c89 0 105 3 122 20 11 11 20 26 20 34 0 18
16 29 29 21 15 -9 -6 -58 -32 -75 -15 -10 -61 -17 -142 -21 l-120 -5 126 -2
c102 -2 129 1 139 13 20 24 26 17 24 -27 -4 -55 5 -86 17 -67 15 25 8 179 -10
196 -14 14 -18 12 -44 -18 -15 -19 -32 -33 -38 -32 -5 2 -9 -1 -9 -6 0 -5 -21
-8 -47 -6 -27 1 -63 3 -81 3 -27 2 -31 5 -24 17 4 9 5 45 0 82 -5 40 -4 72 3
84 6 11 6 19 0 19 -5 0 -7 9 -4 19 6 23 46 28 181 23 76 -3 82 -5 83 -25 0
-21 1 -21 8 -2 8 19 8 19 19 -2 7 -12 12 -28 12 -36 0 -8 7 -17 15 -21 35 -13
3 70 -38 96 -17 12 -55 16 -155 17 -73 1 -138 4 -145 7 -9 3 -12 -33 -12 -151z"/>
<path d="M4415 2172 l-60 -3 5 -167 5 -167 90 3 c103 4 145 20 178 66 18 26
22 44 22 114 0 82 0 82 -35 112 -31 27 -58 36 -125 43 -11 2 -47 1 -80 -1z
m143 -44 c7 -7 12 -9 12 -5 0 4 10 -3 21 -14 24 -24 38 -74 39 -132 0 -30 -5
-40 -22 -47 -13 -5 -17 -9 -10 -9 6 -1 12 -5 12 -11 0 -5 -8 -6 -17 -3 -12 5
-15 2 -10 -10 3 -9 3 -17 -1 -18 -4 0 -18 -3 -32 -5 -14 -3 -55 -7 -91 -9
l-65 -4 -1 47 c-1 26 -2 52 -3 57 -1 6 -2 47 -1 93 l1 82 78 0 c47 0 83 -5 90
-12z"/>
<path d="M4640 2167 c14 -8 27 -12 30 -10 7 6 -23 23 -40 23 -8 0 -4 -6 10
-13z"/>
<path d="M4685 2140 c3 -5 8 -10 11 -10 2 0 4 5 4 10 0 6 -5 10 -11 10 -5 0
-7 -4 -4 -10z"/>
<path d="M5410 2138 c0 -9 5 -20 10 -23 13 -8 13 5 0 25 -8 13 -10 13 -10 -2z"/>
<path d="M470 2131 c0 -5 5 -13 10 -16 6 -3 10 -2 10 4 0 5 -4 13 -10 16 -5 3
-10 2 -10 -4z"/>
<path d="M2777 2112 c-10 -10 -14 -22 -10 -25 3 -4 13 2 21 14 18 26 10 35
-11 11z"/>
<path d="M2413 2103 c2 -12 6 -26 10 -29 12 -13 7 -24 -8 -18 -8 4 -15 2 -15
-4 0 -5 7 -12 15 -16 8 -3 15 -1 15 4 0 16 20 11 27 -6 3 -9 19 -30 35 -47 15
-18 26 -38 23 -45 -3 -7 0 -10 5 -7 6 3 10 1 10 -5 0 -6 4 -9 9 -5 5 3 12 -3
16 -14 3 -11 13 -25 22 -33 14 -11 15 -11 5 7 -6 11 -41 61 -79 112 -37 51
-73 100 -80 110 -11 17 -12 16 -10 -4z"/>
<path d="M4710 2116 c0 -2 7 -6 15 -10 8 -3 15 -1 15 4 0 6 -7 10 -15 10 -8 0
-15 -2 -15 -4z"/>
<path d="M5390 2101 c0 -5 -3 -17 -7 -27 -5 -13 -3 -15 7 -9 10 6 11 0 6 -30
-4 -21 -11 -45 -15 -54 -5 -9 -18 -35 -30 -57 -11 -23 -21 -46 -21 -52 0 -7
-28 -73 -58 -134 -4 -10 178 -10 231 -1 23 3 36 10 33 17 -49 107 -116 285
-116 309 0 9 -5 17 -11 17 -5 0 -8 4 -4 9 3 5 1 12 -5 16 -5 3 -10 2 -10 -4z
m40 -148 c8 -16 14 -31 14 -35 1 -3 4 -10 9 -14 11 -11 9 -36 -3 -29 -6 4 -7
-1 -3 -11 4 -11 8 -13 11 -6 2 7 8 10 13 6 12 -7 11 -41 -1 -47 -6 -3 -5 -4 2
-3 13 3 42 -43 33 -52 -3 -3 -5 0 -5 8 0 9 -3 10 -13 2 -18 -15 -167 -12 -167
3 0 21 22 75 30 75 4 0 5 11 2 25 -2 15 0 25 7 25 6 0 11 7 11 15 0 8 5 15 10
15 6 0 10 8 10 18 0 40 22 42 40 5z"/>
<path d="M445 2053 c3 -27 7 -156 10 -288 2 -132 8 -253 13 -270 6 -23 16 -31
41 -36 19 -4 37 -13 42 -20 10 -18 21 -6 13 14 -3 9 -19 19 -35 22 -16 4 -34
16 -40 27 -15 27 -18 507 -4 505 15 -3 75 -69 75 -83 0 -8 7 -14 15 -14 8 0
19 -9 24 -19 6 -11 28 -37 48 -58 32 -33 103 -114 122 -140 8 -11 31 -15 31
-6 0 5 -24 34 -53 65 -28 32 -63 72 -77 89 -14 18 -30 37 -35 43 -6 6 -21 25
-34 41 -12 17 -47 56 -77 88 -30 31 -54 64 -54 72 0 8 -7 15 -15 15 -11 0 -13
-11 -10 -47z"/>
<path d="M4740 2083 c0 -5 7 -18 15 -29 13 -18 14 -18 8 4 -5 22 -23 41 -23
25z"/>
<path d="M2725 2045 c-15 -20 -25 -38 -22 -41 2 -2 17 12 32 31 15 20 25 38
22 41 -2 2 -17 -12 -32 -31z"/>
<path d="M1522 2035 c0 -16 2 -22 5 -12 2 9 2 23 0 30 -3 6 -5 -1 -5 -18z"/>
<path d="M5509 2023 c5 -17 14 -40 20 -52 7 -12 9 -26 6 -31 -3 -6 -1 -10 4
-10 14 0 14 12 -1 47 -6 15 -12 34 -14 42 -1 7 -7 18 -13 24 -7 7 -8 2 -2 -20z"/>
<path d="M1920 2030 c0 -5 5 -10 10 -10 6 0 10 5 10 10 0 6 -4 10 -10 10 -5 0
-10 -4 -10 -10z"/>
<path d="M5461 2024 c0 -11 3 -14 6 -6 3 7 2 16 -1 19 -3 4 -6 -2 -5 -13z"/>
<path d="M560 2024 c0 -3 7 -12 15 -20 13 -13 15 -13 15 -1 0 8 -7 17 -15 21
-8 3 -15 3 -15 0z"/>
<path d="M3240 2005 c0 -8 2 -15 4 -15 2 0 6 7 10 15 3 8 1 15 -4 15 -6 0 -10
-7 -10 -15z"/>
<path d="M4740 2010 c0 -6 4 -9 9 -6 5 4 12 1 14 -4 3 -6 4 -5 3 2 -3 15 -26
23 -26 8z"/>
<path d="M4282 1980 c0 -19 2 -27 5 -17 2 9 2 25 0 35 -3 9 -5 1 -5 -18z"/>
<path d="M5327 1953 c-14 -32 -64 -148 -112 -258 -48 -110 -97 -212 -109 -227
-21 -27 -58 -45 -85 -39 -7 1 -10 -2 -7 -8 8 -13 234 -13 242 1 4 6 -1 8 -14
4 -11 -4 -23 -2 -27 4 -3 6 -10 8 -15 5 -5 -3 -29 -7 -54 -9 -34 -2 -46 0 -46
10 0 13 12 18 32 15 4 0 4 7 1 17 -7 16 -6 16 19 0 l26 -17 -11 28 c-8 23 -4
41 24 112 19 46 37 86 42 87 4 2 7 9 7 15 0 9 38 11 139 9 77 -2 154 1 172 5
20 6 -30 7 -128 5 -193 -5 -190 -8 -138 112 19 45 35 87 35 94 0 7 4 12 8 12
9 0 34 71 28 77 -2 2 -15 -23 -29 -54z"/>
<path d="M5475 1990 c3 -5 11 -10 16 -10 6 0 7 5 4 10 -3 6 -11 10 -16 10 -6
0 -7 -4 -4 -10z"/>
<path d="M2450 1978 c0 -10 4 -18 9 -18 5 0 11 -9 14 -20 7 -27 22 -25 24 2 2
18 0 20 -7 8 -5 -8 -10 -10 -10 -4 0 5 -7 19 -15 30 -13 17 -14 17 -15 2z"/>
<path d="M2656 1952 c-14 -21 -26 -42 -26 -47 0 -9 10 3 45 58 26 41 12 32
-19 -11z"/>
<path d="M3871 1974 c0 -11 3 -14 6 -6 3 7 2 16 -1 19 -3 4 -6 -2 -5 -13z"/>
<path d="M4680 1943 c-14 -44 -64 -100 -100 -115 -14 -5 -54 -14 -90 -19 -36
-5 -73 -12 -84 -15 -13 -4 -16 -2 -11 6 5 9 2 10 -12 6 -22 -7 -38 7 -46 39
-3 12 -5 5 -6 -17 -1 -27 3 -37 16 -40 15 -3 18 -21 20 -152 3 -144 9 -176 37
-176 6 0 24 -7 40 -15 45 -24 43 -10 -3 21 -23 14 -41 31 -41 36 0 5 -4 6 -10
3 -10 -6 -6 237 5 255 8 13 55 13 55 -1 0 -5 5 -7 10 -4 6 3 10 -1 10 -9 0 -9
3 -16 8 -16 4 0 18 -21 32 -47 13 -27 32 -55 42 -64 10 -9 15 -18 12 -21 -3
-3 9 -21 25 -39 17 -18 31 -27 31 -20 0 12 -55 89 -73 102 -5 3 -8 8 -7 10 3
9 -16 47 -42 83 -15 21 -28 44 -28 50 0 6 20 12 47 13 44 2 113 29 113 45 0 5
6 8 13 8 8 0 19 11 25 25 6 14 15 25 19 25 5 0 9 18 10 40 0 22 0 40 -2 40 -2
0 -9 -17 -15 -37z"/>
<path d="M1520 1940 c0 -11 4 -20 9 -20 5 0 7 9 4 20 -3 11 -7 20 -9 20 -2 0
-4 -9 -4 -20z"/>
<path d="M3200 1956 c0 -2 7 -9 15 -16 12 -10 15 -10 15 4 0 9 -7 16 -15 16
-8 0 -15 -2 -15 -4z"/>
<path d="M630 1938 c0 -4 4 -8 9 -8 6 0 12 4 15 8 3 5 -1 9 -9 9 -8 0 -15 -4
-15 -9z"/>
<path d="M5496 1935 c4 -8 10 -12 15 -9 11 6 2 24 -11 24 -5 0 -7 -7 -4 -15z"/>
<path d="M3206 1880 c-5 -25 -8 -49 -6 -55 2 -5 4 -31 5 -57 1 -26 10 -63 19
-83 10 -20 15 -45 11 -58 -5 -17 -4 -19 4 -7 10 14 12 13 15 -9 0 -5 4 -13 9
-17 4 -4 7 -16 7 -26 0 -11 3 -17 8 -15 7 5 26 -11 30 -25 1 -5 4 -8 7 -8 3 0
14 -9 24 -19 68 -68 244 -89 352 -41 31 14 58 30 60 35 1 6 13 18 25 28 12 9
32 38 44 63 17 34 25 42 32 32 6 -9 7 -5 3 11 -4 14 -2 26 5 31 6 4 14 47 18
103 4 52 4 93 0 91 -5 -3 -8 -22 -8 -42 0 -49 -24 -141 -51 -195 -31 -62 -110
-133 -171 -153 -67 -22 -178 -15 -238 16 -77 39 -141 118 -173 215 -5 16 -13
75 -16 130 -6 93 -7 97 -15 55z"/>
<path d="M5550 1915 c1 -6 7 -21 16 -35 l15 -25 -7 25 c-7 26 -24 52 -24 35z"/>
<path d="M3901 1894 c0 -11 3 -14 6 -6 3 7 2 16 -1 19 -3 4 -6 -2 -5 -13z"/>
<path d="M575 1890 c-3 -5 -1 -10 4 -10 6 0 11 5 11 10 0 6 -2 10 -4 10 -3 0
-8 -4 -11 -10z"/>
<path d="M2450 1886 c0 -11 10 -31 23 -44 18 -21 19 -24 4 -19 -10 4 -16 3
-12 -3 8 -12 -36 -62 -50 -56 -6 2 -12 -5 -12 -15 -1 -12 3 -17 10 -13 7 3 2
-3 -9 -13 -12 -10 -27 -28 -33 -40 -7 -13 -19 -23 -27 -23 -8 0 -13 -4 -9 -10
10 -16 -120 -155 -172 -182 -18 -9 -33 -23 -32 -30 0 -10 2 -10 6 -1 2 7 22
17 44 23 45 12 78 46 215 220 54 69 105 130 112 136 12 8 8 18 -22 50 -29 31
-36 35 -36 20z"/>
<path d="M2602 1873 c-10 -31 -1 -55 33 -85 11 -9 17 -17 13 -18 -3 0 7 -14
23 -31 16 -18 27 -34 25 -36 -3 -3 6 -15 20 -28 16 -15 22 -29 18 -41 -4 -13
-3 -15 3 -6 7 9 19 -2 43 -40 50 -79 101 -138 117 -138 8 0 13 -6 10 -12 -2
-9 -21 -12 -59 -10 -31 2 -58 0 -61 -5 -7 -12 218 -12 229 0 4 4 -11 7 -34 7
-36 0 -48 6 -85 43 -23 23 -58 65 -77 92 -62 91 -183 250 -196 258 -7 4 -11
21 -9 42 4 42 0 44 -13 8z"/>
<path d="M5516 1887 c3 -10 9 -15 12 -12 3 3 0 11 -7 18 -10 9 -11 8 -5 -6z"/>
<path d="M1520 1875 c0 -8 -6 -12 -14 -9 -8 3 -17 1 -21 -5 -3 -6 1 -11 9 -11
8 0 19 -8 25 -17 9 -16 10 -16 9 2 0 11 3 28 7 38 4 10 3 17 -4 17 -6 0 -11
-7 -11 -15z"/>
<path d="M3130 1838 c0 -31 3 -39 10 -28 13 20 13 57 0 65 -6 4 -10 -11 -10
-37z"/>
<path d="M710 1860 c0 -5 7 -7 15 -4 8 4 15 8 15 10 0 2 -7 4 -15 4 -8 0 -15
-4 -15 -10z"/>
<path d="M5526 1848 c3 -4 9 -8 15 -8 5 0 9 4 9 8 0 5 -7 9 -15 9 -8 0 -12 -4
-9 -9z"/>
<path d="M5590 1825 c0 -8 4 -15 10 -15 5 0 7 7 4 15 -4 8 -8 15 -10 15 -2 0
-4 -7 -4 -15z"/>
<path d="M1557 1785 c2 -22 5 -94 6 -160 l2 -120 140 0 c120 0 146 3 180 20
35 18 76 63 87 97 2 6 10 8 16 4 9 -5 9 -14 -2 -34 -15 -30 -27 -140 -15 -147
4 -3 10 17 15 43 4 26 9 54 12 62 2 8 6 32 9 53 4 31 2 37 -14 37 -10 0 -25 6
-32 13 -10 10 -11 9 -7 -3 3 -9 -12 -35 -37 -63 -41 -47 -44 -49 -95 -49 -30
1 -52 -4 -52 -10 0 -13 -155 -7 -169 7 -13 13 -20 202 -8 214 5 5 4 12 -2 16
-8 4 -7 11 3 21 18 17 53 18 59 2 4 -10 6 -10 6 0 1 6 8 12 17 12 8 0 12 -4 9
-10 -4 -6 6 -10 22 -10 22 0 25 2 13 10 -12 8 -10 10 8 10 13 0 22 -3 20 -7
-2 -5 9 -21 25 -38 l30 -30 -8 35 c-4 19 -12 40 -17 47 -6 7 -49 13 -117 15
l-108 3 4 -40z"/>
<path d="M5551 1804 c0 -11 3 -14 6 -6 3 7 2 16 -1 19 -3 4 -6 -2 -5 -13z"/>
<path d="M760 1794 c0 -8 5 -12 10 -9 6 3 10 10 10 16 0 5 -4 9 -10 9 -5 0
-10 -7 -10 -16z"/>
<path d="M1523 1765 c0 -27 2 -38 4 -22 2 15 2 37 0 50 -2 12 -4 0 -4 -28z"/>
<path d="M2493 1763 c-151 -206 -270 -333 -313 -333 -8 0 -22 -5 -30 -11 -11
-8 -4 -9 28 -7 23 2 42 1 42 -2 0 -5 118 -5 130 0 3 1 15 1 28 0 12 -1 22 3
22 9 0 10 -38 17 -70 12 -52 -8 -90 -8 -90 1 0 5 9 12 20 15 11 3 17 10 13 16
-4 6 0 8 10 4 10 -4 17 -1 17 5 0 7 7 3 16 -8 15 -18 15 -18 10 5 -6 30 11 59
122 209 47 62 82 115 79 118 -3 3 -18 -11 -34 -33z"/>
<path d="M2587 1780 c3 -11 9 -20 13 -20 5 0 6 9 3 20 -3 11 -9 20 -13 20 -5
0 -6 -9 -3 -20z"/>
<path d="M5600 1790 c0 -5 4 -10 10 -10 5 0 7 -7 4 -15 -4 -8 -2 -15 4 -15 6
0 16 -22 23 -50 7 -27 16 -50 20 -50 4 0 15 -24 24 -52 10 -29 24 -64 32 -76
9 -15 12 -34 9 -50 -5 -21 -4 -23 4 -12 8 13 11 13 19 1 5 -7 14 -12 21 -9 8
2 4 13 -12 33 -14 17 -37 62 -53 100 -15 39 -31 74 -36 80 -5 5 -9 15 -9 22 0
20 -43 113 -52 113 -4 0 -8 -4 -8 -10z"/>
<path d="M413 1765 c-3 -9 -3 -18 -1 -21 3 -3 8 4 11 16 6 23 -1 27 -10 5z"/>
<path d="M2526 1738 c-11 -24 -30 -52 -43 -64 -20 -19 -21 -22 -6 -19 10 2 21
4 25 4 4 1 10 10 13 22 4 12 15 29 25 39 18 18 19 18 25 -1 4 -10 11 -19 16
-19 5 0 9 -5 9 -12 0 -17 49 -78 63 -78 7 1 3 8 -8 18 -18 15 -29 34 -74 124
-8 15 -17 28 -20 28 -3 0 -15 -19 -25 -42z"/>
<path d="M5570 1765 c-7 -9 -10 -18 -7 -21 3 -3 10 4 17 15 13 25 8 27 -10 6z"/>
<path d="M4589 1753 c12 -23 43 -61 39 -48 -10 29 -32 65 -40 65 -5 0 -4 -8 1
-17z"/>
<path d="M4550 1731 c0 -6 4 -13 10 -16 6 -3 7 1 4 9 -7 18 -14 21 -14 7z"/>
<path d="M825 1720 c3 -5 8 -10 11 -10 2 0 4 5 4 10 0 6 -5 10 -11 10 -5 0 -7
-4 -4 -10z"/>
<path d="M411 1704 c0 -11 3 -14 6 -6 3 7 2 16 -1 19 -3 4 -6 -2 -5 -13z"/>
<path d="M3150 1701 c0 -6 4 -13 10 -16 6 -3 7 1 4 9 -7 18 -14 21 -14 7z"/>
<path d="M2645 1692 c6 -4 17 -20 24 -37 9 -19 15 -25 19 -16 2 7 0 16 -5 20
-5 3 -12 14 -16 24 -3 9 -12 17 -19 17 -8 0 -9 -3 -3 -8z"/>
<path d="M4260 1613 c0 -47 2 -84 5 -81 9 9 11 168 3 168 -5 0 -8 -39 -8 -87z"/>
<path d="M808 1679 c-4 -12 39 -66 46 -58 1 2 -7 19 -20 37 -12 18 -24 27 -26
21z"/>
<path d="M4628 1683 c7 -3 16 -2 19 1 4 3 -2 6 -13 5 -11 0 -14 -3 -6 -6z"/>
<path d="M4580 1674 c0 -13 18 -39 24 -34 2 3 -2 14 -10 24 -8 11 -14 16 -14
10z"/>
<path d="M5260 1671 c0 -6 31 -8 72 -6 80 4 122 -5 73 -16 -26 -6 -24 -7 15
-8 32 0 41 2 30 9 -11 7 -3 10 30 11 25 1 52 1 62 0 9 -1 19 3 23 9 4 7 -43
10 -149 10 -92 0 -156 -4 -156 -9z"/>
<path d="M4640 1661 c0 -5 7 -11 15 -15 8 -3 15 -11 15 -19 0 -12 49 -82 95
-135 11 -13 33 -30 48 -38 37 -20 25 -34 -28 -34 -24 0 -46 -3 -49 -8 -2 -4
30 -6 72 -5 42 1 85 3 95 3 9 0 17 5 17 10 0 6 -15 10 -33 10 -29 0 -43 10
-93 63 -32 35 -77 89 -99 120 -37 53 -55 69 -55 48z"/>
<path d="M5238 1645 c-6 -30 -3 -43 8 -33 3 4 4 19 2 35 l-3 28 -7 -30z"/>
<path d="M3125 1641 c-3 -6 4 -15 15 -21 20 -11 21 -10 10 9 -12 23 -16 25
-25 12z"/>
<path d="M5556 1635 c-3 -9 0 -15 9 -15 16 0 20 16 6 24 -5 3 -11 -1 -15 -9z"/>
<path d="M2460 1635 c-1 -5 -2 -14 -1 -19 1 -5 -6 -5 -16 -2 -14 6 -16 5 -5
-5 15 -16 37 2 29 23 -3 7 -6 9 -7 3z"/>
<path d="M1459 1580 c-5 -55 -4 -68 7 -58 3 3 4 30 2 59 l-3 54 -6 -55z"/>
<path d="M1520 1605 c0 -14 4 -25 9 -25 4 0 6 11 3 25 -2 14 -6 25 -8 25 -2 0
-4 -11 -4 -25z"/>
<path d="M4615 1620 c-3 -5 -1 -10 4 -10 6 0 11 5 11 10 0 6 -2 10 -4 10 -3 0
-8 -4 -11 -10z"/>
<path d="M867 1590 c3 -11 9 -20 14 -20 11 0 11 3 3 24 -9 23 -23 20 -17 -4z"/>
<path d="M2650 1593 c0 -5 7 -17 15 -27 12 -16 12 -22 2 -29 -7 -5 -2 -6 13
-1 14 3 22 3 18 -1 -4 -5 -3 -14 3 -21 8 -10 3 -21 -22 -45 -30 -29 -30 -31
-8 -24 13 3 32 9 41 11 36 10 26 52 -24 106 -10 10 -18 23 -18 28 0 6 -4 10
-10 10 -5 0 -10 -3 -10 -7z"/>
<path d="M2736 1583 c-6 -14 -5 -15 5 -6 7 7 10 15 7 18 -3 3 -9 -2 -12 -12z"/>
<path d="M3150 1592 c0 -5 7 -13 16 -16 10 -4 14 -1 12 6 -5 15 -28 23 -28 10z"/>
<path d="M5220 1573 c0 -29 12 -24 17 7 2 11 -2 20 -7 20 -6 0 -10 -12 -10
-27z"/>
<path d="M2415 1581 c-6 -11 9 -23 19 -14 9 9 7 23 -3 23 -6 0 -12 -4 -16 -9z"/>
<path d="M5590 1568 c19 -18 28 -44 12 -34 -5 3 -6 -8 -4 -25 3 -18 0 -29 -7
-29 -7 0 -10 -4 -7 -9 4 -5 0 -12 -6 -14 -7 -3 -4 -6 8 -6 32 -1 46 40 32 93
-9 33 -17 44 -30 43 -16 -1 -16 -3 2 -19z"/>
<path d="M5640 1571 c0 -6 4 -13 10 -16 6 -3 7 1 4 9 -7 18 -14 21 -14 7z"/>
<path d="M900 1557 c0 -10 8 -17 18 -17 9 0 13 4 7 8 -5 4 -13 11 -17 16 -5 5
-8 2 -8 -7z"/>
<path d="M2770 1561 c0 -6 4 -13 10 -16 6 -3 7 1 4 9 -7 18 -14 21 -14 7z"/>
<path d="M1531 1545 c-3 -28 -8 -47 -15 -65 -5 -11 0 -17 16 -19 44 -6 314 -4
339 2 31 8 86 54 76 63 -4 4 -15 0 -24 -8 -10 -9 -34 -20 -53 -26 -42 -14
-308 -18 -320 -6 -5 5 -10 25 -13 44 -2 19 -5 26 -6 15z"/>
<path d="M2373 1524 c-29 -45 -29 -52 3 -64 33 -13 41 -13 27 1 -6 6 -9 18 -6
25 3 8 0 14 -7 14 -6 0 -8 -4 -5 -10 3 -5 1 -10 -4 -10 -17 0 -13 15 9 35 20
18 27 45 13 45 -5 -1 -18 -17 -30 -36z"/>
<path d="M2746 1547 c3 -10 9 -15 12 -12 3 3 0 11 -7 18 -10 9 -11 8 -5 -6z"/>
<path d="M3807 1538 c-10 -11 -17 -22 -14 -24 2 -2 12 5 22 16 23 26 16 33 -8
8z"/>
<path d="M3854 1515 c-28 -24 -24 -32 10 -19 9 3 16 12 16 19 0 7 6 16 13 18
7 3 7 6 1 6 -6 1 -24 -10 -40 -24z"/>
<path d="M4324 1499 c-1 -15 3 -26 8 -23 5 3 7 0 6 -7 -2 -7 6 -14 17 -16 12
-3 16 -1 8 4 -6 5 -15 21 -18 36 -10 38 -20 41 -21 6z"/>
<path d="M5654 1512 c0 -9 -3 -30 -7 -45 -5 -18 -4 -26 2 -23 14 9 25 66 14
77 -5 5 -9 1 -9 -9z"/>
<path d="M5187 1514 c-12 -12 17 -53 44 -63 36 -13 39 5 4 21 -14 6 -25 19
-25 30 0 18 -11 24 -23 12z"/>
<path d="M1440 1485 c-12 -32 -12 -35 -2 -35 14 0 33 48 22 55 -6 4 -15 -6
-20 -20z"/>
<path d="M4634 1498 c3 -15 26 -23 26 -8 0 6 -4 9 -9 6 -5 -4 -12 -1 -14 4 -3
6 -4 5 -3 -2z"/>
<path d="M2758 1475 c-5 -25 5 -34 18 -14 4 8 9 7 15 -2 5 -8 9 -9 9 -3 0 6
-8 19 -19 28 -18 16 -19 16 -23 -9z"/>
<path d="M970 1486 c0 -5 11 -21 25 -38 14 -16 25 -23 25 -16 0 8 -11 25 -25
38 -14 13 -25 20 -25 16z"/>
<path d="M1050 1470 c0 -11 5 -20 10 -20 6 0 10 9 10 20 0 11 -4 20 -10 20 -5
0 -10 -9 -10 -20z"/>
<path d="M3280 1475 c7 -8 19 -15 26 -15 8 0 14 -4 14 -10 0 -5 9 -10 20 -10
11 0 20 -4 20 -9 0 -21 204 -48 252 -33 18 6 50 13 71 17 20 3 37 10 37 14 0
4 -23 2 -52 -5 -67 -18 -179 -18 -243 0 -55 15 -128 47 -133 59 -2 4 -8 7 -14
7 -6 0 -6 -6 2 -15z"/>
<path d="M3756 1458 c2 -3 -2 -9 -8 -11 -9 -4 -8 -6 2 -6 8 0 23 6 33 13 17
13 16 14 -7 12 -13 0 -22 -4 -20 -8z"/>
<path d="M5677 1459 c7 -7 15 -10 18 -7 3 3 -2 9 -12 12 -14 6 -15 5 -6 -5z"/>
<path d="M4685 1450 c-3 -5 -1 -10 4 -10 6 0 11 5 11 10 0 6 -2 10 -4 10 -3 0
-8 -4 -11 -10z"/>
<path d="M2421 1434 c0 -11 3 -14 6 -6 3 7 2 16 -1 19 -3 4 -6 -2 -5 -13z"/>
<path d="M2715 1432 c-54 -6 -52 -22 3 -22 29 0 52 4 52 9 0 12 -20 17 -55 13z"/>
<path d="M5775 1431 c-11 -4 -56 -6 -101 -3 -55 3 -84 1 -89 -7 -4 -8 4 -11
27 -10 18 0 82 0 142 -1 67 -1 112 2 119 9 8 8 2 11 -20 11 -17 0 -37 2 -45 4
-7 3 -22 1 -33 -3z"/>
<path d="M1365 1420 c-4 -6 86 -9 269 -7 152 1 276 5 276 9 0 11 -538 10 -545
-2z"/>
<path d="M1928 1413 c6 -2 18 -2 25 0 6 3 1 5 -13 5 -14 0 -19 -2 -12 -5z"/>
</g>
</svg>
